<svg xmlns="http://www.w3.org/2000/svg" width="50" height="50" viewBox="0 0 50 50">
    <defs>
        <clipPath id="s1e9zcqmna">
            <path data-name="矩形 7442" transform="translate(656 188)" style="fill:#fff" d="M0 0h50v50H0z"/>
        </clipPath>
    </defs>
    <g data-name="蒙版组 469" transform="translate(-656 -188)" style="clip-path:url(#s1e9zcqmna)">
        <g data-name="组 23487">
            <path data-name="路径 151663" d="M636.542 210.375a4.656 4.656 0 0 0-1.833-.375h-29.417a5.542 5.542 0 0 0-1.875.333A5.292 5.292 0 0 0 600 215.25v26.208a5.176 5.176 0 0 0 3.458 4.875 5.542 5.542 0 0 0 1.875.333h29.375a5.3 5.3 0 0 0 5.292-5.291V215.25a5.176 5.176 0 0 0-3.458-4.875zM616 221.792a4 4 0 1 1-4-3.917 3.957 3.957 0 0 1 4 3.917zM634.708 244h-29.416a2.635 2.635 0 0 1-2.583-2.083 2.031 2.031 0 0 1-.042-.5v-2l7.875-6.667 2.833 2.708a4.066 4.066 0 0 0 5.375.208l13.292-11c2.542 2.75 4.292 4.583 5.375 5.542v11.167a2.742 2.742 0 0 1-2.709 2.625zm0 0" transform="translate(61 -15.333)" style="fill:#fff"/>
        </g>
    </g>
</svg>
