<svg xmlns="http://www.w3.org/2000/svg" width="44" height="44" viewBox="0 0 44 44">
    <defs>
        <clipPath id="dj5qi6ap2a">
            <path data-name="矩形 7508" transform="translate(608.5 181.876)" style="stroke:#707070;fill:#fff" d="M0 0h44v44H0z"/>
        </clipPath>
    </defs>
    <g data-name="组 23573">
        <g data-name="蒙版组 494" style="clip-path:url(#dj5qi6ap2a)" transform="translate(-608.5 -181.876)">
            <path data-name="联合 36" d="M-10364.829-3016.36a1.752 1.752 0 0 1-1.751-1.75 1.751 1.751 0 0 1 1.751-1.75h14.579a1.751 1.751 0 0 1 1.751 1.75 1.752 1.752 0 0 1-1.751 1.75zm-22.88-.326-.008-.005-.021-.014-.016-.011-.009-.006a1.753 1.753 0 0 1-.318-.291l-.021-.026-.021-.026-.021-.026a1.744 1.744 0 0 1-.318-1.365l2.354-12.773a1.806 1.806 0 0 1 .15-.456 1.743 1.743 0 0 1 .385-.606l19.3-19.786a1.914 1.914 0 0 1 .156-.16l2.119-2.173a1.928 1.928 0 0 1 .143-.131 9.052 9.052 0 0 1 12.633-.007 9.051 9.051 0 0 1 .294 12.639 1.649 1.649 0 0 1-.118.135l-21.577 22.116a1.757 1.757 0 0 1-.584.4 1.753 1.753 0 0 1-.464.169l-12.712 2.67a1.888 1.888 0 0 1-.361.038 1.75 1.75 0 0 1-.965-.306zm3.152-3.711 9.746-2.045 17.836-18.284-7.941-7.747-17.835 18.282zm30.024-22.833.884-.906c.023-.028.049-.055.074-.082a5.549 5.549 0 0 0-.1-7.837 5.525 5.525 0 0 0-3.938-1.572 5.5 5.5 0 0 0-3.9 1.669c-.04.041-.082.079-.124.115l-.844.865z" transform="translate(10998.998 3240.618)" style="stroke:transparent;stroke-miterlimit:10;fill:#fff"/>
        </g>
    </g>
</svg>
