<svg xmlns="http://www.w3.org/2000/svg" width="46" height="46" viewBox="0 0 46 46">
    <defs>
        <clipPath id="3tq8e3t7wa">
            <path data-name="矩形 7117" transform="translate(-.499)" style="fill:#676b96" d="M0 0h46v46H0z"/>
        </clipPath>
    </defs>
    <g data-name="组 22698" transform="translate(.499)" style="clip-path:url(#3tq8e3t7wa)">
        <path data-name="路径 147405" d="M5.625 33.877a1.9 1.9 0 0 0 .233-.014 7.5 7.5 0 0 0 14.532.014h22.737a1.875 1.875 0 0 0 0-3.75H20.39a7.5 7.5 0 0 0-14.532.014 1.9 1.9 0 0 0-.233-.014h-3.75a1.875 1.875 0 1 0 0 3.75zM16.876 32a3.75 3.75 0 1 1-3.75-3.75 3.75 3.75 0 0 1 3.75 3.75zm11.25-22.5a3.75 3.75 0 1 0 3.75-3.75 3.75 3.75 0 0 0-3.75 3.75zm3.75 7.5a7.5 7.5 0 0 1-7.264-5.625H1.875a1.875 1.875 0 0 1 0-3.75h22.738a7.5 7.5 0 0 1 14.532.014 1.9 1.9 0 0 1 .233-.014h3.75a1.875 1.875 0 1 1 0 3.75h-3.75a1.9 1.9 0 0 1-.233-.014A7.5 7.5 0 0 1 31.877 17z" transform="translate(0 1.75)" style="fill-rule:evenodd;fill:#676b96"/>
    </g>
</svg>
