<svg xmlns="http://www.w3.org/2000/svg" width="335" height="90" viewBox="0 0 335 90">
    <defs>
        <linearGradient id="rxu9x769ha" x1=".5" x2=".5" y2="1" gradientUnits="objectBoundingBox">
            <stop offset="0" stop-color="#ff953f"/>
            <stop offset="1" stop-color="#fcca6e"/>
        </linearGradient>
    </defs>
    <g data-name="组 23396">
        <rect data-name="矩形 7155" width="335" height="90" rx="20" style="fill:#1a1c40"/>
        <path data-name="矩形 7155 - 轮廓" d="M20 2A18 18 0 0 0 2 20v50a18 18 0 0 0 18 18h295a18 18 0 0 0 18-18V20a18 18 0 0 0-18-18H20m0-2h295a20 20 0 0 1 20 20v50a20 20 0 0 1-20 20H20A20 20 0 0 1 0 70V20A20 20 0 0 1 20 0z" style="fill:url(#rxu9x769ha)"/>
    </g>
</svg>
