<svg xmlns="http://www.w3.org/2000/svg" xmlns:xlink="http://www.w3.org/1999/xlink" width="80" height="80" viewBox="0 0 80 80"><defs><clipPath id="a"><rect width="40.889" height="40.889" transform="translate(0 0)" fill="#fff"/></clipPath></defs><g transform="translate(-630 -94)"><circle cx="40" cy="40" r="40" transform="translate(630 94)" opacity="0.5"/><g transform="translate(649.556 113.556)" clip-path="url(#a)"><path d="M30.976,2.666A10.951,10.951,0,0,0,23.385,5.7c-.2.185-1.237,1.237-2.037,2.051L19.311,5.725A11.021,11.021,0,0,0,.67,13.687a11.585,11.585,0,0,0,3.3,7.858L17.608,35.327a5.237,5.237,0,0,0,3.733,1.785,5.237,5.237,0,0,0,3.733-1.785L38.708,21.552l.1-.1C40.448,19.4,42,17.456,42,13.694A11.05,11.05,0,0,0,30.976,2.666Z" transform="translate(-0.892 0.613)" fill="#fff"/></g></g></svg>