<svg xmlns="http://www.w3.org/2000/svg" xmlns:xlink="http://www.w3.org/1999/xlink" width="44" height="44" viewBox="0 0 44 44"><defs><clipPath id="a"><rect width="44" height="44" transform="translate(726 1149)" fill="#fff"/></clipPath></defs><g transform="translate(-726 -1149)" clip-path="url(#a)"><path d="M15.967,28.377a4.672,4.672,0,0,1-3.409-1.461L3.3,16.526a1.578,1.578,0,0,1,.162-2.273,1.578,1.578,0,0,1,2.273.162l9.416,10.39a1.24,1.24,0,0,0,.812.325,1.4,1.4,0,0,0,.974-.487l8.929-10.39a1.611,1.611,0,0,1,2.435,2.11l-8.929,10.39a3.885,3.885,0,0,1-3.409,1.623Z" transform="translate(732.195 1149.973)" fill="#676b96"/></g></svg>