<svg xmlns="http://www.w3.org/2000/svg" xmlns:xlink="http://www.w3.org/1999/xlink" width="44" height="44" viewBox="0 0 44 44"><defs><clipPath id="a"><rect width="44" height="44" transform="translate(1274 103)" fill="#ff6060"/></clipPath></defs><g transform="translate(-1274 -103)" clip-path="url(#a)"><path d="M11.868,4.666a9.208,9.208,0,0,0-9.2,9.2,9.824,9.824,0,0,0,2.794,6.6L19.3,34.444a3.241,3.241,0,0,0,2.375,1.224,3.241,3.241,0,0,0,2.375-1.224l13.855-14c1.549-1.933,2.766-3.482,2.766-6.569A9.2,9.2,0,0,0,25.131,7.2l-.021.02c-.106.1-.694.687-2,2.019L21.7,10.675,18.215,7.206a9.16,9.16,0,0,0-6.347-2.54m0-2a11.147,11.147,0,0,1,7.744,3.108l2.07,2.062c.813-.828,1.866-1.9,2.07-2.085a11.2,11.2,0,0,1,18.919,8.12c0,3.823-1.58,5.795-3.251,7.879l-.1.105-13.855,14a5.321,5.321,0,0,1-3.793,1.814,5.321,5.321,0,0,1-3.793-1.814L4.019,21.849A11.771,11.771,0,0,1,.67,13.864,11.211,11.211,0,0,1,11.868,2.666Z" transform="translate(1274.33 104.334)" fill="#fff"/></g></svg>