<svg xmlns="http://www.w3.org/2000/svg" xmlns:xlink="http://www.w3.org/1999/xlink" width="80" height="80" viewBox="0 0 80 80"><defs><clipPath id="a"><rect width="28.6" height="44" fill="#fff"/></clipPath></defs><g transform="translate(-30 -94)"><circle cx="40" cy="40" r="40" transform="translate(30 94)" opacity="0.5"/><g transform="translate(56 112)" clip-path="url(#a)"><path d="M18.7,21.2a2.5,2.5,0,0,1-1.768-.732l-18.7-18.7a2.5,2.5,0,0,1,0-3.536,2.5,2.5,0,0,1,3.536,0L18.7,15.164,35.632-1.768a2.5,2.5,0,0,1,3.536,0,2.5,2.5,0,0,1,0,3.536l-18.7,18.7A2.5,2.5,0,0,1,18.7,21.2Z" transform="translate(22 3.3) rotate(90)" fill="#fff"/></g></g></svg>