<svg xmlns="http://www.w3.org/2000/svg" xmlns:xlink="http://www.w3.org/1999/xlink" width="300" height="90" viewBox="0 0 300 90"><defs><linearGradient id="a" x1="0.5" x2="0.5" y2="1" gradientUnits="objectBoundingBox"><stop offset="0" stop-color="#f109b4"/><stop offset="1" stop-color="#622fe3"/></linearGradient></defs><g transform="translate(792 -4339)"><rect width="300" height="90" rx="10" transform="translate(-792 4339)" fill="#202136"/><path d="M10,2a8.009,8.009,0,0,0-8,8V80a8.009,8.009,0,0,0,8,8H290a8.009,8.009,0,0,0,8-8V10a8.009,8.009,0,0,0-8-8H10m0-2H290a10,10,0,0,1,10,10V80a10,10,0,0,1-10,10H10A10,10,0,0,1,0,80V10A10,10,0,0,1,10,0Z" transform="translate(-792 4339)" fill="url(#a)"/></g></svg>