<svg xmlns="http://www.w3.org/2000/svg" width="40" height="40" viewBox="0 0 40 40">
    <g data-name="组 22760">
        <g data-name="组 22756">
            <path data-name="路径 38100" d="M18.333 36.666a18.333 18.333 0 1 1 18.333-18.333 18.355 18.355 0 0 1-18.333 18.333zm0-33.333a15 15 0 1 0 15 15 15.017 15.017 0 0 0-15-15z" style="fill:#fff"/>
            <path data-name="路径 38101" d="M26.863 28.53a1.662 1.662 0 0 1-1.178-.488l-7.992-7.992a1.667 1.667 0 1 1 2.358-2.357l7.99 7.992a1.667 1.667 0 0 1-1.178 2.845z" transform="translate(11.47 11.47)" style="fill:#fff"/>
        </g>
    </g>
</svg>
