<svg xmlns="http://www.w3.org/2000/svg" width="520" height="634" viewBox="0 0 520 634">
    <path data-name="路径 156361" d="M559.188 217.946c15.331-20.723 19.59-59.7 12.538-83.849s-25.989-45.2-50.593-56.241C493.579 65.5 461.591 65.81 430.945 64S370.3 57.449 348.85 37.419C327.4 57.449 297.4 62.194 266.755 64s-62.635 1.5-90.189 13.856c-24.6 11.037-43.539 32.088-50.591 56.241s-2.793 63.127 12.538 83.849h-20.45c-16.134 0-29.212 11.921-29.212 26.625v426.848h520V244.57c0-14.7-13.078-26.625-29.212-26.625z" transform="translate(-88.85 -37.419)" style="fill:#292b4e"/>
</svg>
