<svg xmlns="http://www.w3.org/2000/svg" width="60" height="60" viewBox="0 0 60 60">
    <defs>
        <clipPath id="wmsnvox5na">
            <path data-name="矩形 7532" transform="translate(485 144)" style="fill:#fff" d="M0 0h60v60H0z"/>
        </clipPath>
        <clipPath id="oappw3nn9b">
            <path data-name="矩形 7528" style="fill:#898989" d="M0 0h60v54.31H0z"/>
        </clipPath>
    </defs>
    <g data-name="蒙版组 501" transform="translate(-485 -144)" style="clip-path:url(#wmsnvox5na)">
        <g data-name="组 23620">
            <g data-name="组 23618">
                <g data-name="组 23617" transform="translate(485 147)" style="clip-path:url(#oappw3nn9b)">
                    <path data-name="路径 153745" d="M553.88 195.436a6.93 6.93 0 0 0 5.621 6.538v22.26h-3.747a1.7 1.7 0 1 0 0 3.389h56.206a1.7 1.7 0 1 0 0-3.387h-3.747v-22.262a6.93 6.93 0 0 0 5.621-6.538v-1.694H553.88zm37.471 6.776c4.143 0 7.494-3.034 7.494-6.776a6.93 6.93 0 0 0 5.621 6.538v22.26h-28.1v-22.022c4.143 0 7.494-3.034 7.494-6.776 0 3.742 3.359 6.776 7.494 6.776zm-16.862-.238v22.26h-11.241v-22.26a6.93 6.93 0 0 0 5.621-6.538 6.93 6.93 0 0 0 5.621 6.538zm31.85-23.478h-44.965l-7.494 13.551h59.953zm-36.629 3.765-3.747 6.776a.959.959 0 0 1-.841.47.981.981 0 0 1-.417-.089.808.808 0 0 1-.417-1.135l3.747-6.776a.991.991 0 0 1 1.255-.381.813.813 0 0 1 .42 1.135zm7.494 0-3.747 6.776a.96.96 0 0 1-.841.47.981.981 0 0 1-.417-.089.808.808 0 0 1-.417-1.135l3.747-6.776a.992.992 0 0 1 1.255-.381.813.813 0 0 1 .419 1.135zm7.59 6.4a.942.942 0 0 1-1.875 0v-6.776a.942.942 0 0 1 1.875 0zm10.758.741a1.007 1.007 0 0 1-.454.106.95.95 0 0 1-.819-.44l-4.1-6.776a.805.805 0 0 1 .373-1.148.991.991 0 0 1 1.274.334l4.1 6.776a.811.811 0 0 1-.374 1.148zm7.458.016a.955.955 0 0 1-.418.089.94.94 0 0 1-.834-.47l-3.747-6.776a.809.809 0 0 1 .417-1.135.991.991 0 0 1 1.259.381l3.747 6.776a.811.811 0 0 1-.424 1.135zm-33.2 24.91v-3.9a1.659 1.659 0 0 1-.937-1.436 1.883 1.883 0 0 1 3.747 0 1.654 1.654 0 0 1-.937 1.437v3.9a1.653 1.653 0 0 1 .937 1.437 1.883 1.883 0 0 1-3.747 0 1.661 1.661 0 0 1 .937-1.438zm-8.432-39.219a1.792 1.792 0 0 1 1.874-1.694h41.218a1.7 1.7 0 1 1 0 3.387h-41.222a1.791 1.791 0 0 1-1.874-1.694zm25.343 36.173-1.324-1.2 5.3-4.791 1.324 1.2zm0 4.791-1.324-1.2 10.6-9.582 1.324 1.2zm9.274-5.989 1.324 1.2-5.3 4.791-1.324-1.2zm0 0" transform="translate(-553.889 -173.383)" style="fill:#898989"/>
                </g>
            </g>
        </g>
    </g>
</svg>
