<svg xmlns="http://www.w3.org/2000/svg" width="749.654" height="1336.183" viewBox="0 0 749.654 1336.183">
    <g data-name="组 50433">
        <path data-name="路径 153982" d="M18231.742 2710.607s65.02-17.089 76.988-34.376c2.691-4.889 30.332-35.3-114.076-62.961-5.293-.783-104.018-17.432-106.525-36.985-.834-6.446-.5-16.484 51.363-34.587 3.518-4.364 14.986-16.1-51.363-11.2-6.859 1.883-214.09 25.039-229.123-67.422s7.908-191.569 7.908-191.569 23.7-112.221 0-215.993-27.373-255.747-20.439-370.791c4.4-73.061 16.039-129.429 41.02-148.353s96.422-80.3 204.785 7.613c4.715-.339 28.418-86.168 191.381-37.148 5.094 2.349 114.74-61.1 203.678 44.49 6.148 3.885 65.709-12.538 83.84 7.028s21.883 125.8 21.824 218.107-42.389 322.232-19.213 387.279 15.109 264.035 0 299.339-56.148 62.219-194.025 47.548c-18.139-1.225-65.773 2.936-43.758 12.078 5.762 2.328 14.033 21.791-34.527 35.3-13.053 2.092-89.789 22.871-41.354 43.823 5.918 2.428 114.484 41.011 89.775 66.323-3.945 4.213-29.939 30.015-95.953 39.5-21.034 4.365-22.206 2.957-22.206 2.957z" transform="translate(-17843.348 -1490.056)" style="fill:#292b4e"/>
        <g data-name="组 50432">
            <path data-name="路径 153957" d="M662.519 748.115c-.51-.223-.306-.466 0 0z" transform="translate(-519.015 483.326)" style="fill:#292b4e"/>
            <path data-name="路径 153958" d="M1599.676 585.082c.1-.013.185-.042.28-.061h.148z" transform="translate(-1342.384 626.337)" style="fill:#292b4e"/>
            <path data-name="路径 153959" d="M1276.24 496.687a2.736 2.736 0 0 1-1.045.423c-3.639.043-43.5.048-43.4.061l-.427-.062h.148a2.291 2.291 0 0 1-1.37-.725.963.963 0 0 1 .128-1.378 1.932 1.932 0 0 1 .411-.291 4.006 4.006 0 0 1 .564-.247 8.455 8.455 0 0 1 2.871-.389 11.346 11.346 0 0 1 2.254.262c-.036-.052-.059-.1-.092-.152-2.316-3.529-.053-5.912 3.636-8.888a1.7 1.7 0 0 1 1.062-.375h24.817a1.528 1.528 0 0 1 .951.336c3.773 3.037 6.087 5.449 3.591 9.079a10.948 10.948 0 0 1 1.48-.223c.256-.021.516-.035.774-.039a10.387 10.387 0 0 1 1.519.08 5.641 5.641 0 0 1 1.915.556 1.55 1.55 0 0 1 .666.623 1.037 1.037 0 0 1-.453 1.349z" transform="translate(-1017.623 714.249)" style="fill:#292b4e"/>
            <path data-name="路径 153960" d="M988.937 1548.474h101.579c.02 0 .033-.009.052-.01 1.023.349 1.915 1.306 1.987 3.69.155.779 3.675 3.874 2.266 3.874H984.709c-1.409 0 2.111-3.1 2.266-3.874.071-2.365.95-3.323 1.962-3.68z" transform="translate(-801.973 -219.846)" style="fill:#292b4e"/>
            <path data-name="路径 153961" d="m135.934 110.308.117 5.44q.059 2.731.121 5.495c.018.44 0 .966.048 1.337l.145 1.092.293 2.19a64.12 64.12 0 0 0 1.52 8.8l1.069 4.411c.354 1.475.984 2.893 1.47 4.348.54 1.439 1 2.9 1.609 4.306l2.028 4.121 1.017 2.046c.375.661.81 1.29 1.213 1.934l2.463 3.819a65.2 65.2 0 0 0 12.271 12.806l1.682 1.37c.576.433 1.182.817 1.77 1.226l3.543 2.39c2.46 1.369 4.836 2.869 7.339 3.987a108.044 108.044 0 0 0 14.808 5.895c2.446.809 4.856 1.506 7.235 2.2a66.515 66.515 0 0 0 7.5 1.539c4.684.735 8.623 1.567 11.483 3.659a12.936 12.936 0 0 1 5.509 8.175 7.208 7.208 0 0 1-.53 4.108 7.774 7.774 0 0 1-2.694 3.114 8.519 8.519 0 0 1-3.789 1.456 6.8 6.8 0 0 1-3.635-.578 7.314 7.314 0 0 1-4.156-5.368 4.858 4.858 0 0 1 .484-2.862 6.321 6.321 0 0 1 1.993-2.182 4.977 4.977 0 0 1 4.869-.642 4.569 4.569 0 0 1 2.336 3.347 6.347 6.347 0 0 1-.276 3.439c-.73 1.791-1.932 2.274-1.788 2.6.047.136.368.161 1.005.013a4.812 4.812 0 0 0 2.276-1.755 7.526 7.526 0 0 0 1.31-4.541 8.13 8.13 0 0 0-.706-3.074 6.548 6.548 0 0 0-2.5-2.91 8.492 8.492 0 0 0-8.587.02 10.393 10.393 0 0 0-3.721 3.407 9.415 9.415 0 0 0-1.449 5.5A12.358 12.358 0 0 0 215.6 217.3a14.267 14.267 0 0 0 6.612-2.094 13.859 13.859 0 0 0 5.085-5.357 13.553 13.553 0 0 0 1.429-7.72 17.347 17.347 0 0 0-1.616-5.574 92.343 92.343 0 0 0 12.3 7.093c14.514 7.1 29.978 12.315 45.5 13.746a18.466 18.466 0 0 1 1.675 19 22.668 22.668 0 0 1-6.108 7.658c-14.281 1.519-26.079 5.285-32.708 10.241h93.618c-5.941-4.441-16.032-7.926-28.35-9.7a22.944 22.944 0 0 1-6.746-8.2 18.576 18.576 0 0 1 2.462-20.053 75.262 75.262 0 0 0 13.629-3.981c18.732-7.469 44.123-21.162 69.65-47.717 17.183-17.876 49.127-21.75 63.778-12.02 3.965 2.633 9.823 5.647 10.971 3.657-3.46-2.234-7.567-4.915-11.215-6.826-6.826-3.576-1.056-3.413-1.75-5.72-9.047-2.969-18.269-1.67-27.381-.9-15.52 1.307-30.232 7.189-44.748 12.833-22.065 8.58-42.3 16.3-65.473 21.151-33.679 7.044-49.294 6.785-83.206.77-16.078-2.852-26.411-8.305-34.734-18.615a25.002 25.002 0 0 1-.783-1.582c.535-.446 1.342-.029 1.891.407.355.282.672.608 1.015.9l-.112-.047c8.855 13.494 40.161 18.458 53 19.708 13.306 1.3 22.013 1 35.345 0a184.6 184.6 0 0 0 23.9-3.319c20.073-3.8 38.061-10.355 50.731-14.71 17.285-5.941 22.279-8.588 39.64-14.3 7.829-2.577 36.575-8.037 48.924-4.326 0-2.763-17.669-4.216-25.6-3.394-27.469 2.844-51.494 11.9-76.677 16.254-7.818 1.351-15.452 2.89-23.058 4.356a29.827 29.827 0 0 0-7.425-2.883 22.878 22.878 0 0 1-7.893-13.273 2.776 2.776 0 0 0-2.724-2.272h-28.76a2.379 2.379 0 0 0-2.35 1.962 22.869 22.869 0 0 1-7.8 13.456c-6.8 1.747-11.047 4.21-11.047 6.943 0 1.211.842 2.369 2.362 3.437-7.583.362-15.736.972-23.448.271a1.391 1.391 0 0 1 0-1.037 2.912 2.912 0 0 1 1.614-1.348c.074-.033.152-.06.228-.091.332-.07.649-.144.93-.232a23.213 23.213 0 0 0 7.7-3.825 31.249 31.249 0 0 0 4.611-4.865 5.2 5.2 0 0 0 .586.059 5.275 5.275 0 0 0 4.373-8.225 68.731 68.731 0 0 0 6.983-18.007c.127-.548.242-1.1.348-1.662q.727-2.368 1.391-4.746c.136-.273.25-.556.392-.826a13.617 13.617 0 0 1 1.521-2.4c.03-.036.066-.066.1-.1 2.744-1.5 4.908-3.886 7.537-5.588 2.6-1.683 6.139-2.567 8.737-.964a8.052 8.052 0 0 0 3.343 6.247c0 .044-.007.087-.007.131a15.222 15.222 0 0 0 .136 1.9c-1.668-.476-1.52.362-3.181.844a4.969 4.969 0 0 0-2.1 1.548 5.819 5.819 0 0 0-1.09 1.261c-.065.075 22 .075 21.933 0a5.826 5.826 0 0 0-1.09-1.262 4.964 4.964 0 0 0-2.1-1.548c-1.661-.482-1.513-1.32-3.181-.844a15.222 15.222 0 0 0 .136-1.9c0-.044-.007-.087-.007-.131a8.069 8.069 0 1 0-11.33-11.167c-5.456.049-11.031.513-15.519 3.495-2.269 1.507-4.171 3.612-6.689 4.651s-6.069.448-6.983-2.118c-1.519 1.136-1.427 3.635-.183 5.066a6.276 6.276 0 0 0 4.08 1.895 5.481 5.481 0 0 1 1.074 2.084 7.3 7.3 0 0 1 .216 1.461 70.727 70.727 0 0 1-1.139 6.012l-2.03 6.544a63.459 63.459 0 0 0 1.124-3.171q-.584 2.011-1.284 3.987a52.4 52.4 0 0 1-3.967 7.237 5.221 5.221 0 0 0-1.533-.253 5.247 5.247 0 0 0-4.031 8.639c-6.121 7.631-16.518 12.228-25.994 9.063l-1.4-.468a28.751 28.751 0 0 1-10.824-6.694 32.332 32.332 0 0 1-4.5-5.5 14.105 14.105 0 0 1-.817-1.485c-.1-.247-.222-.437-.318-.728l-.289-.878a23.056 23.056 0 0 1-.868-3.62 22.739 22.739 0 0 1 .164-7.653 36.653 36.653 0 0 1 2.595-7.915 18.829 18.829 0 0 1 1.858-3.589 9.19 9.19 0 0 1 2.553-2.516 15.06 15.06 0 0 1 3.628-1.649 41.2 41.2 0 0 1 4.314-1.126 12.448 12.448 0 0 1 3.926-.221 11.7 11.7 0 0 1 8.951 6.1 12.307 12.307 0 0 1 1.267 7.091 11.456 11.456 0 0 1-2.814 6.265 10.078 10.078 0 0 1-5.492 3.28 9.441 9.441 0 0 1-5.951-.778 7.568 7.568 0 0 1-3.735-3.941 8.147 8.147 0 0 1-.343-5.15 7.038 7.038 0 0 1 .97-2.093 4.2 4.2 0 0 1 .757-.726l1.1-.833a4.82 4.82 0 0 1 3.791-.591 7.027 7.027 0 0 1 3.412 1.7 5.448 5.448 0 0 1 1.048 1.3 9.392 9.392 0 0 1 .715 1.5 2.953 2.953 0 0 1 .094 2.295 3.383 3.383 0 0 1-1.317 1.316c-.994.594-1.651.839-1.6 1.056.033.16.718.323 2.049 0a4.207 4.207 0 0 0 2.29-1.452 4 4 0 0 0 .72-1.767 6.019 6.019 0 0 0-.1-2.024 10.693 10.693 0 0 0-.631-1.994 7.8 7.8 0 0 0-1.292-2.087 9.633 9.633 0 0 0-4.6-2.929 8.048 8.048 0 0 0-6.6.669l-1.278.83a7.937 7.937 0 0 0-1.471 1.248 10.472 10.472 0 0 0-1.9 3.364 12.173 12.173 0 0 0 .066 7.9 12.052 12.052 0 0 0 5.644 6.577 14.143 14.143 0 0 0 9.035 1.532 15.048 15.048 0 0 0 8.483-4.668 16.666 16.666 0 0 0 4.332-9.088 17.637 17.637 0 0 0-1.686-10.335 17.209 17.209 0 0 0-13.269-9.217 18.03 18.03 0 0 0-5.654.279 45.173 45.173 0 0 0-5.005 1.313c-.586.194-1.178.417-1.769.659.248-.581.488-1.177.706-1.811a6.184 6.184 0 0 0 .268-4.316 4.19 4.19 0 0 0-3.172-2.627 6.438 6.438 0 0 0-2.3-.007 10.77 10.77 0 0 0-2.144.614l-2.39.925a60.467 60.467 0 0 1-10 2.674 57.824 57.824 0 0 1-21.579-.32c-6.963-1.492-13.669-5.179-16.572-10.664a12.93 12.93 0 0 1-1.4-4.3 11.745 11.745 0 0 1 .159-4.379A13.319 13.319 0 0 1 157.3 83.4a9.2 9.2 0 0 1 7.409-2.129 11.894 11.894 0 0 1 6.827 3.754 13.313 13.313 0 0 1 2.175 3.174 13 13 0 0 1 1.068 3.563 7.531 7.531 0 0 1-1.734 6.275 10.675 10.675 0 0 1-11.274 3.212 7.535 7.535 0 0 1-3.908-3.162 8.079 8.079 0 0 1-.982-4.289 7.44 7.44 0 0 1 2.516-5.641 5.149 5.149 0 0 1 2.042-.949 5.144 5.144 0 0 0-2.183.749 7.891 7.891 0 0 0-3.261 5.765 8.5 8.5 0 0 0 5.089 9.189 12.857 12.857 0 0 0 14.049-2.946 10.484 10.484 0 0 0 2.433-3.835 11.533 11.533 0 0 0 .569-4.706 16.285 16.285 0 0 0-1.093-4.676 16.871 16.871 0 0 0-2.576-4.278 15.852 15.852 0 0 0-8.97-5.5 13.374 13.374 0 0 0-5.8.08 14.516 14.516 0 0 0-5.346 2.562 18.063 18.063 0 0 0-6.5 9.9 16.837 16.837 0 0 0-.409 6.273 18.11 18.11 0 0 0 1.826 6.093 22.485 22.485 0 0 0 6.882 7.922 8.368 8.368 0 0 1 .174 1.505 2.254 2.254 0 0 1-.236 1.2 1.646 1.646 0 0 1-1.318.73c-.88-.7-1.744-1.452-2.611-2.225l-1.441-1.325-2.2-2.071c-1.9-1.777-3.968-3.579-5.7-3.962a5.029 5.029 0 0 0-2.47-.091 4.176 4.176 0 0 0-1.362.5 5.518 5.518 0 0 0-1.057.793 5 5 0 0 0-.8.988 9.752 9.752 0 0 0-.612 1.289l-.147.334-.084.423-.165.853-.165.854a3.307 3.307 0 0 0-.021.713zm114.719 39.857a2.359 2.359 0 0 1 2.319-2.319h.386a2.319 2.319 0 1 1 0 4.637h-.386a2.345 2.345 0 0 1-2.32-2.317zm-76.511-32.293a3.234 3.234 0 0 1-1.954 2.156 9.284 9.284 0 0 1-2.86.591c-.753-.167-1.5-.353-2.251-.578a33.3 33.3 0 0 1-8.609-4.1 2.508 2.508 0 0 1-.217-2.573 2.419 2.419 0 0 1 1.756-1.167 36.832 36.832 0 0 0 9.5 3.433c1.453.3 2.908.528 4.362.718a2.149 2.149 0 0 1 .272 1.521zm22.775 22.888a2.893 2.893 0 0 1-3.3-.435 33.731 33.731 0 0 1 .635-5.688 17.466 17.466 0 0 1 .739-2.993l.564-1.714.284-.864c.1-.29.182-.54.316-1.009l1.487-5.078.188-.646c.079-.232-.007-.3 0-.464a4.466 4.466 0 0 0-.159-.792 3.58 3.58 0 0 0-.328-.779 2.558 2.558 0 0 0-.724-.8 4.622 4.622 0 0 0-1.561-.729 6.818 6.818 0 0 0-2.216-.166c-1.811.219-4.061.995-5.977 1.425l-.715.172-.4.083-.8.161-1.6.286a46.95 46.95 0 0 1-3.252.408c-.6.058-1.208.069-1.815.1a5.444 5.444 0 0 1-1.526-.477 3.142 3.142 0 0 1 .555-2.5c.067-.1.148-.184.223-.276l3.357-1.034c-.111-.048-.231-.073-.345-.112a60.944 60.944 0 0 0 12.707-1.1 62.453 62.453 0 0 0 10.85-3.2c.846-.336 1.728-.732 2.51-1.063l.346-.15a.638.638 0 0 1 .158-.041.255.255 0 0 1 .286.145.684.684 0 0 1-.021.405s-.018.069-.054.175l-.089.268-.185.535c-.13.356-.267.71-.418 1.064-.3.708-.626 1.411-.982 2.115-.7 1.406-1.5 2.813-2.269 4.254a56.03 56.03 0 0 0-3.809 8.873 56.633 56.633 0 0 0-2.661 11.642zm-.511 12.633a3.72 3.72 0 0 1-.675-.281l-.082-.247-.771-2.369a40.608 40.608 0 0 1-.969-5.039 29.69 29.69 0 0 1-.295-5.065 33.359 33.359 0 0 0 .486 5.434 2.628 2.628 0 0 1 1.155-2.792 1.517 1.517 0 0 1 1.462.169c-.051.98-.078 1.952-.052 2.907a26.038 26.038 0 0 0 1.161 7.239 2.791 2.791 0 0 1-1.426.045zm-52.093-38.26c.02-.09.084-.017.148.01l2.246 2.014c1.054.914 2.122 1.819 3.245 2.673a43.517 43.517 0 0 0 14.924 7.762 37.824 37.824 0 0 0 8.168 1.344 49.472 49.472 0 0 0 7.845-.328 53.67 53.67 0 0 0 3.751-.58l1.831-.383.9-.212.448-.109.125-.037c.455-.132.713-.3 1.175-.4.136-.011.129.126.111.2s-.048.163-.071.251l-.159.562-.658 2.5a25.064 25.064 0 0 0-.588 3.133 37.2 37.2 0 0 0 .19 12.864 44.858 44.858 0 0 0 1.444 5.785c.327.907.692 1.785 1.031 2.657a20.484 20.484 0 0 0 1.112 2.525 41.859 41.859 0 0 0 2.541 4.594l1.338 2.1c.456.676.967 1.294 1.436 1.924a60.445 60.445 0 0 0 11.193 11.3c.208.175.413.328.619.492a124.184 124.184 0 0 0 6.806 8.237 28.542 28.542 0 0 0-1.679-.609 60.864 60.864 0 0 0-7.268-1.733 61.5 61.5 0 0 1-6.623-1.525c-2.295-.731-4.625-1.464-6.923-2.28a104.3 104.3 0 0 1-13.682-5.737c-2.284-1.056-4.375-2.444-6.584-3.7l-3.12-2.168c-.518-.368-1.057-.713-1.561-1.1l-1.465-1.225a57.951 57.951 0 0 1-10.6-11.218l-2.113-3.323c-.348-.559-.729-1.1-1.053-1.675l-.872-1.792-1.768-3.593c-.533-1.23-.928-2.532-1.406-3.8-.426-1.288-1-2.518-1.309-3.842l-.958-3.948a57.478 57.478 0 0 1-1.4-7.956l-.28-1.987-.142-.993c-.044-.323-.031-.491-.05-.744l-.135-2.788z" transform="translate(-56.783 1072.793)" style="fill:#292b4e"/>
        </g>
    </g>
</svg>
