<svg xmlns="http://www.w3.org/2000/svg" width="34" height="34" viewBox="0 0 34 34">
    <defs>
        <clipPath id="rnacp5o0wa">
            <path data-name="矩形 7654" transform="translate(291 780)" style="fill:#fff" d="M0 0h34v34H0z"/>
        </clipPath>
    </defs>
    <g data-name="蒙版组 536" transform="translate(-291 -780)" style="clip-path:url(#rnacp5o0wa)">
        <g data-name="组 50771">
            <path data-name="路径 157515" d="M1045.694 192.7h3.006c.429 0 .546-.279.273-.59l-3.825-4.025c-.312-.312-.468-.2-.468.231v3.2c0 .663.351 1.181 1.014 1.181zm0 0" transform="translate(-733.789 597.26)" style="fill:#fff"/>
            <path data-name="路径 157516" d="M627.63 200.538h-6.111a1.323 1.323 0 1 1 0-2.646h7.109a7.543 7.543 0 0 1 6.332-3.318 11.753 11.753 0 0 1 1.563.231v-4.426c0-.663-1.153-1.092-1.819-1.092h-3.9c-.663 0-.9-.585-.9-1.248v-3.905c0-.663-.822-1.134-1.446-1.134H618.7c-1.287 0-1.7 1.017-1.7 2.3v18.738c0 1.287.41 2.117 1.7 2.117h10.318a7.413 7.413 0 0 1-1.49-4.368 6.77 6.77 0 0 1 .106-1.253zm-6.111-8.273h10.041a1.323 1.323 0 1 1 0 2.646h-10.042a1.323 1.323 0 1 1 0-2.646zm0 0" transform="translate(-321 602)" style="fill:#fff"/>
            <path data-name="路径 157517" d="M963.095 554.441a5.935 5.935 0 0 0-6.017 5.98 6.078 6.078 0 0 0 6.017 5.981 5.935 5.935 0 0 0 6.017-5.981 6.005 6.005 0 0 0-6.017-5.98zm3.485 6.588h-3.638c-.365 0-.5-.039-.5-.4v-3.641a.663.663 0 0 1 1.326 0v2.719h2.813a.662.662 0 1 1 0 1.323zm0 0" transform="translate(-649.237 243.492)" style="fill:#fff"/>
        </g>
    </g>
</svg>
