<svg xmlns="http://www.w3.org/2000/svg" width="34" height="34" viewBox="0 0 34 34">
    <defs>
        <clipPath id="6cnedh9x7a">
            <path data-name="矩形 7525" transform="translate(291 780)" style="fill:#fff" d="M0 0h34v34H0z"/>
        </clipPath>
        <clipPath id="a3dvwiwq4b">
            <path data-name="矩形 8080" transform="translate(341.346 699)" style="fill:#fff" d="M0 0h30v31H0z"/>
        </clipPath>
    </defs>
    <g data-name="蒙版组 478" transform="translate(-291 -780)" style="clip-path:url(#6cnedh9x7a)">
        <g data-name="组 50764" transform="translate(-47.346 82)" style="clip-path:url(#a3dvwiwq4b)">
            <path data-name="路径 157500" d="M7.782 15.48a.307.307 0 0 0 .307-.307v-3.444a.307.307 0 1 0-.614 0v3.444a.307.307 0 0 0 .307.307zm0-7.83a.307.307 0 0 0 .307-.307v-1.3a3.933 3.933 0 0 1 3.929-3.929.307.307 0 1 0 0-.614 4.548 4.548 0 0 0-4.543 4.543v1.3a.307.307 0 0 0 .307.307z" transform="translate(338.621 699.341)" style="fill:#fff"/>
            <path data-name="路径 157501" d="M23.3 18.728c.147.1.528.379.518.557s.09-.017-3.8 3.093a16.292 16.292 0 0 0-.7 2.47h5.133c.249 0 .248.418 0 .418H11.618a.21.21 0 0 1 0-.418h7.314a16.751 16.751 0 0 1 .733-2.608 9.276 9.276 0 0 1 1.479-6.3.183.183 0 0 1 .141-.084.171.171 0 0 1 .148.067 2.85 2.85 0 0 1 .312.47c.057-.444.1-.892.122-1.314a.22.22 0 0 1 .055-.138.251.251 0 0 1 .032-.029 7.376 7.376 0 0 1 2.135-1.622.172.172 0 0 1 .185.018.219.219 0 0 1 .081.186 5.446 5.446 0 0 1-.119.837c.473-.548.884-1.044 1.25-1.542a.187.187 0 0 1 .1-.071c.249-.064.491-.112.725-.149V6.613a2.158 2.158 0 0 1 .726-1.627H11.226a1.562 1.562 0 0 0-1.471 1.636v21.631a2.148 2.148 0 0 1-.725 1.6h15.814a1.562 1.562 0 0 0 1.471-1.636V17.1c-.172.18-1.8 1.869-2.03 1.8a3.321 3.321 0 0 0-.985-.172zm-.453-5.682H11.621a.21.21 0 0 1 0-.418h11.231a.21.21 0 0 1 0 .418zm-8.635-6.528h7.646a.21.21 0 0 1 0 .418h-7.646a.21.21 0 0 1 0-.418zm-2.593 3.055h12.832a.21.21 0 0 1 0 .418H11.619a.21.21 0 0 1 0-.418zm0 6.114h8.417a.21.21 0 0 1 0 .418h-8.419a.21.21 0 0 1 0-.418zm0 3.055c7.228.091 7.447-.194 7.447.209s-.225.118-7.447.209a.21.21 0 0 1 0-.418zm0 3.05c7.026.09 7.267-.194 7.267.209s-.239.119-7.267.209a.21.21 0 0 1 0-.418zm12.834 6.529H11.618a.21.21 0 0 1 0-.418h12.833a.21.21 0 0 1 0 .418zM24.64 22c0 .383-.458.132-2.525.209a.2.2 0 0 1-.188-.209c0-.383.458-.132 2.525-.209a.2.2 0 0 1 .188.209z" transform="translate(338.021 697.995)" style="fill:#fff"/>
            <path data-name="路径 157502" d="M5.512 25.051H2.173v3.175a1.67 1.67 0 0 0 3.339 0zM26.934 4.988a1.651 1.651 0 0 0-1.67 1.628v3.175H28.6V6.616a1.647 1.647 0 0 0-1.666-1.628zm-2.759 8.122c-.573.679-1.236 1.349-2.038 2.151a.219.219 0 0 1-.269.03.207.207 0 0 1-.084-.251 5.755 5.755 0 0 0 .346-1.206 8.014 8.014 0 0 0-1.944 1.349 18.9 18.9 0 0 1-.246 1.948.212.212 0 0 1-.19.174c-.279.039-.2-.32-.629-.9a8.126 8.126 0 0 0-1.528 5.078 15.732 15.732 0 0 1 6.207-6.672.217.217 0 0 1 .294.072.206.206 0 0 1-.074.286A15.311 15.311 0 0 0 18 21.625c.774-.539 2.108-1.463 3.428-2.367a3.383 3.383 0 0 0-.914-.492.208.208 0 0 1 .044-.4 5.08 5.08 0 0 1 1.98.1 26 26 0 0 0 2.16-1.813 3.094 3.094 0 0 0-1.025-.666.208.208 0 0 1-.13-.227.212.212 0 0 1 .2-.175 5.463 5.463 0 0 1 1.886.2 146.333 146.333 0 0 1 2.766-2.55l.018-.016a8.606 8.606 0 0 0-4.238-.108z" transform="translate(340.668 697.994)" style="fill:#fff"/>
        </g>
    </g>
</svg>
