<svg xmlns="http://www.w3.org/2000/svg" xmlns:xlink="http://www.w3.org/1999/xlink" width="22" height="22" viewBox="0 0 22 22"><defs><linearGradient id="a" x1="0.5" x2="0.5" y2="1" gradientUnits="objectBoundingBox"><stop offset="0" stop-color="#ff953f"/><stop offset="1" stop-color="#fcca6e"/></linearGradient><clipPath id="b"><rect width="22" height="22" transform="translate(1274 103)" fill="url(#a)"/></clipPath></defs><g transform="translate(-1274 -103)" clip-path="url(#b)"><path d="M16.8,2.666a5.829,5.829,0,0,0-4.04,1.616c-.106.1-.658.658-1.084,1.092l-1.084-1.08A5.866,5.866,0,0,0,.67,8.532a6.166,6.166,0,0,0,1.754,4.182L9.685,20.05a2.787,2.787,0,0,0,1.987.95,2.787,2.787,0,0,0,1.987-.95l7.257-7.332.051-.055a5.865,5.865,0,0,0-4.167-10Z" transform="translate(1273.33 102.167)" fill="url(#a)"/></g></svg>