<svg xmlns="http://www.w3.org/2000/svg" width="266" height="100" viewBox="0 0 266 100">
    <defs>
        <clipPath id="voavqk1tma">
            <path data-name="矩形 7101" transform="translate(-4987 13320)" style="fill:#575757" d="M0 0h266v100H0z"/>
        </clipPath>
    </defs>
    <g data-name="蒙版组 375" transform="translate(4987 -13320)" style="opacity:.4;clip-path:url(#voavqk1tma)">
        <g data-name="组 22693">
            <g data-name="组 22685">
                <path data-name="路径 146669" d="M747.021 346.833q-7.57 4.2-15.162 8.337a7.649 7.649 0 0 0-.97-1.05 9.851 9.851 0 0 0-2.67-1.663 14.746 14.746 0 0 0-2.711-.856 25.275 25.275 0 0 0-5.23-.526 52.094 52.094 0 0 0-9.92 1.017 82.548 82.548 0 0 0-9.491 2.433 86 86 0 0 0-9.138 3.514 61.788 61.788 0 0 0-8.712 4.76 35.882 35.882 0 0 0-4.081 3.137 19.243 19.243 0 0 0-3.606 4.219 11.341 11.341 0 0 0-1.27 2.9 8.515 8.515 0 0 0-.211 3.537 8.032 8.032 0 0 0 .475 1.754 6.357 6.357 0 0 0 1.119 1.866 6.618 6.618 0 0 0 1.688 1.362 8.22 8.22 0 0 0 1.757.709 12.06 12.06 0 0 0 3.125.374 19.483 19.483 0 0 0 2.758-.211 38.716 38.716 0 0 0 5.019-1.1 83.111 83.111 0 0 0 9.246-3.29c5.969-2.475 11.688-5.332 17.324-8.308q4.216-2.255 8.363-4.608c1.076-.613 2.137-1.251 3.208-1.874-.07.18-.135.36-.208.537a29.212 29.212 0 0 1-4.66 7.405 47.11 47.11 0 0 1-6.515 6.281c-.256.206-.533.39-.793.591a13.687 13.687 0 0 0-2.308-.008 33.317 33.317 0 0 0-4.823.806 70.01 70.01 0 0 0-9.191 2.908 56.039 56.039 0 0 0-8.77 4.214 17.343 17.343 0 0 0-2.1 1.5 8 8 0 0 0-1.034 1.035 4.383 4.383 0 0 0-.5.755 2.831 2.831 0 0 0-.327 1.241 2.4 2.4 0 0 0 .539 1.563 2.793 2.793 0 0 0 1.091.79 5.123 5.123 0 0 0 1.688.348 13.6 13.6 0 0 0 2.7-.169 34.839 34.839 0 0 0 4.851-1.147 58.828 58.828 0 0 0 4.608-1.622 75.88 75.88 0 0 0 8.78-4.17 69.2 69.2 0 0 0 6.462-4.058 9.523 9.523 0 0 1-.877 1.693 36.2 36.2 0 0 1-2.843 3.672 37.63 37.63 0 0 1-7.006 6.187 35.359 35.359 0 0 1-4.058 2.389 27.585 27.585 0 0 1-4.374 1.789 31.59 31.59 0 0 0 8.76-3.66 36.536 36.536 0 0 0 7.527-5.916 37.246 37.246 0 0 0 3.154-3.664 10.174 10.174 0 0 0 1.266-2.222 4.061 4.061 0 0 0 .3-1.428c0-.06-.009-.126-.012-.188a51.437 51.437 0 0 0 7.185-6.585 33.013 33.013 0 0 0 5.6-8.463c.175-.4.341-.787.5-1.21s.312-.859.441-1.312a11.59 11.59 0 0 0 .481-2.924v-.194q3.828-2.305 7.618-4.67c2.681-1.7 5.36-3.389 8.01-5.131 5.291-3.494 10.568-7 15.737-10.671l3.881-2.742 3.842-2.8q3.84-2.8 7.591-5.726zm-46.228 40.149a56.091 56.091 0 0 1-4.281 1.675 31.7 31.7 0 0 1-4.332 1.185 11.022 11.022 0 0 1-1.891.2 6.71 6.71 0 0 1 .268-.263 16.318 16.318 0 0 1 1.707-1.317 53.72 53.72 0 0 1 8.134-4.34 67.892 67.892 0 0 1 8.751-3.193 33.2 33.2 0 0 1 3.943-.861 71.774 71.774 0 0 1-12.3 6.914zm12.944-22.294c-2.8 1.415-5.609 2.792-8.439 4.11s-5.665 2.6-8.528 3.768a90.74 90.74 0 0 1-8.608 3.08 33.02 33.02 0 0 1-4.231.957 16.3 16.3 0 0 1-1.964.178 6.467 6.467 0 0 1-1.574-.137c-.194-.05-2.1-.52-.15-3.53a13.978 13.978 0 0 1 2.529-2.969 30.269 30.269 0 0 1 3.4-2.675 56.329 56.329 0 0 1 7.864-4.413 81.577 81.577 0 0 1 8.513-3.395 77.11 77.11 0 0 1 8.83-2.423 47.147 47.147 0 0 1 8.9-1.076 20.937 20.937 0 0 1 4.2.332 7.694 7.694 0 0 1 2.875 1.095c-4.521 2.417-9.054 4.802-13.617 7.098z" transform="translate(-5630.438 13021.948)" style="fill:#575757"/>
            </g>
            <path data-name="路径 146670" d="M702.075 309.822a4.316 4.316 0 1 1-4.316-4.316 4.316 4.316 0 0 1 4.316 4.316z" transform="translate(-5623.995 13014.494)" style="fill:#575757"/>
            <g data-name="组 22686">
                <path data-name="路径 146671" d="M789.242 349.873c.488-.53-.54-1.181-1.941-1.622-.6-.189 4.219-.77 5.431-.792a1.114 1.114 0 0 1 .873.417c.108.2-.07.658-.258.894-2.186 2.723-3.977 3.947-7.05 7.424-6 6.786 2.131 3.372 3.448 1.867 1.654-1.892 2.337-4.13 3.964-6.043 1.933-2.271 4.144-4.259 7.18-4.825a9.86 9.86 0 0 1 3.93.125c2.277.532 3.082 2.352 1.82 4.31a27.06 27.06 0 0 1-3.589 4c-1.094 1.118-4.342 3.3-4.51 4.7-.108.9 5.605-2.031 5.939-2.08-.062.341-5.292 5.1-9.669 4.017-2.806-.69 3.549-6.335 5.253-8.28 1.166-1.328 5.588-5.541 2.565-5.505-1.9.023-3.171 1.671-4.419 2.967-2.1 2.176-4.127 4.417-6.164 6.65s-6.611 5.068-10 4.395a1.4 1.4 0 0 1-1.026-2.144 23.635 23.635 0 0 1 2.265-3.691 74.58 74.58 0 0 1 5.958-6.784z" transform="translate(-5559.753 13028.724)" style="fill:#575757"/>
                <path data-name="路径 146672" d="M774.782 344.385c4.753-3.5 7.2 1.511 6.384 6.32-1.088 6.433-8.082 13.649-14.46 14.958-2.759.566-5.319.688-7.191-2.244-1.147-1.794-.579-3.9.215-5.7 1.714-3.874 6.931-7.337 11.146-6.986 1.235.1 2.967.477 3.583 1.939-.885.058-7.959-1.539-11.938 6.594-1.875 3.832.275 5.453 2.2 5.354a10 10 0 0 0 7.188-3.544 24.48 24.48 0 0 0 5.82-11.637c1.144-6.919-3.392-4.726-2.947-5.054z" transform="translate(-5579.201 13025.324)" style="fill:#575757"/>
                <path data-name="路径 146673" d="M786.524 344.385c4.755-3.5 7.2 1.511 6.386 6.32-1.09 6.433-8.084 13.649-14.462 14.958-2.759.566-5.319.688-7.192-2.244-1.147-1.794-.577-3.9.215-5.7 1.714-3.874 6.933-7.337 11.146-6.986 1.237.1 2.969.477 3.585 1.939-.886.058-7.961-1.539-11.94 6.594-1.875 3.832.275 5.453 2.2 5.354a9.994 9.994 0 0 0 7.188-3.544 24.483 24.483 0 0 0 5.822-11.637c1.145-6.919-3.394-4.726-2.948-5.054z" transform="translate(-5568.797 13025.324)" style="fill:#575757"/>
                <path data-name="路径 146674" d="M770.774 345.815a75.234 75.234 0 0 0-5.4 7.4c-1.4 2.491-4.247 7.048-1.65 8.24-1.88 1.439-2.418 1.494-3.817.481a23.759 23.759 0 0 1-2.884 1.5c-2.782 1.007-6.986-1.162-6.546-5.871.326-3.474 5.385-12.167 14.447-10.107 1.639.462 3.133.421 4.281-.922a3.335 3.335 0 0 1 1.569-.721zm-4.519 3.316a14.64 14.64 0 0 0-2.556-.67c-4.094-.028-7.872 3.336-9.458 7.114-.622 1.481-1.007 6.407 2.969 5.671a2.347 2.347 0 0 0 2.165-1.937 10.124 10.124 0 0 1 .771-2.086c1.39-2.972 6.099-7.949 6.109-8.092z" transform="translate(-5586.663 13027.629)" style="fill:#575757"/>
                <path data-name="路径 146675" d="M745.724 362.264c.711-4.012 4.51-9.941 7.124-13.059 9.008-10.737 14.962-8.3 15.3-7.98-.372.177-6.36-.585-13.819 11.708-8.617 14.2.013 15-.783 15.17-.081-.103-9.182 1.841-7.822-5.839z" transform="translate(-5590.968 13023.156)" style="fill:#575757"/>
                <path data-name="路径 146676" d="M785.807 345.735c-.01-1.137.79-1.848 2.089-1.856a1.865 1.865 0 0 1 1.95 1.643 2.378 2.378 0 0 1-1.993 2.135 1.869 1.869 0 0 1-2.046-1.922z" transform="translate(-5555.33 13025.914)" style="fill:#575757"/>
                <path data-name="路径 146677" d="M824.008 378.2c-22 1.573-67.831 12.5-64.287-4.732 1.79-8.706 10.477-21.218 21.784-30.831 3.042-2.584 12.416-8.921 12.412-9.1-.008-.29-19.428 2.316-37.14 19.551-6.867 6.68-13.632 13.485-20.873 19.758-10.369 8.983-14.913 1.462-10.969-2.763 4.8-5.145 8.195-1.48 6.9 1.028-.758 1.473 2.357-2.186.643-3.944-2.956-3.027-9.132.215-10.8 3.64-1.79 3.682-.507 7.4 3.414 8.566a10.062 10.062 0 0 0 8.64-1.535c6.409-4.131 11.852-9.421 17.56-14.39 2.614-2.277 5.683-2.691 9.091-2.686-20.588 39.126 37.736 24.551 52.266 22.882 9.89-1.135 36.747-5.783 42.966-2.409 4.959 2.691-8.463 7.527-8.463 7.527 5.181-.236 12.274-1.89 15.334-5.194 3.414-3.681-2.424-7.949-38.478-5.368zm-66.873-18.94c-.347.015-.694 0-1.405 0 2.458-2.333 4.777-4.325 6.89-6.524 6.509-6.777 22-15.39 20.039-13.885-3.1 2.378-12.542 9.051-18.508 16.878-2.599 3.413-2.716 3.328-7.016 3.53z" transform="translate(-5612.85 13016.729)" style="fill:#575757"/>
            </g>
            <g data-name="组 22689">
                <path data-name="路径 147038" d="M723.963 337.676a45.938 45.938 0 0 0-1.736-4.934q-1.031-2.416-2.307-4.746a54.967 54.967 0 0 0-2.78-4.559q-.76-1.113-1.581-2.206-.41-.545-.843-1.09l-.442-.544-.49-.577-4.549-5.366-1.51 6.444a72 72 0 0 1-5.194 14.89 58.243 58.243 0 0 1-22.22 24.6 61.267 61.267 0 0 1-17.121 7.31 46.646 46.646 0 0 0 9.7-1.77c1.581-.442 3.138-.949 4.659-1.526s3.021-1.2 4.479-1.891a57.462 57.462 0 0 0 21.516-17.373 60.6 60.6 0 0 0 4.75-7.375 64.776 64.776 0 0 0 4.018-9.095c.5.792.978 1.589 1.427 2.4a47.023 47.023 0 0 1 2.131 4.292 41.523 41.523 0 0 1 1.679 4.4c1.879 5.907 2.248 12.107.1 17.832a25.741 25.741 0 0 1-4.894 8.058c-12.671 14.471-27.414 16.564-28.388 16.675.5.04 5.629 1.277 21.081-5.991 17.037-7.193 19.765-24.074 19.884-27.559a33.472 33.472 0 0 0-1.369-10.299z" transform="translate(-5633.891 13017.16)" style="fill:#575757"/>
            </g>
            <g data-name="组 22692">
                <path data-name="路径 147399" d="M670.847 358.074s7.709-6.808-.892-6.387-14.635 4.532-11.865 8.9c2.857 4.506 20.6-1.628 30.907-7.977 15.527-9.564 26.477-11.274 43.038-9.79 27.086 2.426 55.562-14.522 55.562-14.522s-23.394 21.492-61.523 19.626c-26.14-1.278-61.365 29.614-73.517 15.783-11.165-12.707 38.822-22.567 18.29-5.633z" transform="translate(-5637.909 13021.948)" style="fill:#575757"/>
            </g>
        </g>
    </g>
</svg>
