<svg xmlns="http://www.w3.org/2000/svg" width="750" height="528" viewBox="0 0 750 528">
    <defs>
        <clipPath id="4gs87ioxka">
            <path data-name="矩形 7427" transform="translate(-1040 -1453)" style="fill:#fff" d="M0 0h750v528H0z"/>
        </clipPath>
    </defs>
    <g data-name="组 23069">
        <g data-name="蒙版组 462" style="clip-path:url(#4gs87ioxka)" transform="translate(1040 1453)">
            <g data-name="组 23068">
                <path data-name="路径 150827" d="M804.59 557.915c137.41-28.38 268.356-155.437 392.838-197.983-45.3-48.609-92.638-65-174.092 20.748C903.7 506.629 760.9 461.155 670.909 409.614v97.573c34.449 39.244 78.284 62.168 133.681 50.728z" transform="translate(-1710.909 -1507.861)" style="fill:#25274e"/>
                <path data-name="路径 150828" d="M1420.9 264.864v360.883a357.665 357.665 0 0 0-53.82-41.8c-55.156-35.319-111.7-33.812-169.649-14-45.292-48.613-92.639-65.009-174.1 20.744-119.63 125.949-262.442 80.47-352.428 28.929V264.864z" transform="translate(-1710.909 -1717.864)" style="fill:#303360"/>
                <g data-name="组 23067">
                    <path data-name="路径 150864" d="M780.068 339.415C837.41 400.952 891.5 513.574 1006 538.518V395.836a361.15 361.15 0 0 0-54.411-42.25c-55.759-35.707-112.931-34.198-171.521-14.171z" transform="translate(-1295.999 -1490.129)" style="fill:#282b5f"/>
                    <path data-name="路径 150865" d="M780.069 371.57s91.653-103.431 225.926-25.46v81.881S900.791 321.687 780.069 371.57z" transform="translate(-1296 -1522.279)" style="fill:#383d8e"/>
                </g>
            </g>
        </g>
    </g>
</svg>
