<svg xmlns="http://www.w3.org/2000/svg" width="26" height="26" viewBox="0 0 26 26">
    <defs>
        <clipPath id="vg8bg6x9la">
            <path data-name="矩形 4594" transform="translate(.291)" style="stroke:#707070;fill:#fff" d="M0 0h26v26H0z"/>
        </clipPath>
        <clipPath id="2rdig9ka3b">
            <path data-name="矩形 4595" style="fill:#fff" d="M0 0h26v19.135H0z"/>
        </clipPath>
    </defs>
    <g data-name="蒙版组 112" transform="translate(-.291)" style="clip-path:url(#vg8bg6x9la)">
        <g data-name="组 11237">
            <g data-name="组 11236">
                <g data-name="组 11235" transform="translate(.291 3.466)" style="clip-path:url(#2rdig9ka3b)">
                    <path data-name="路径 30970" d="M651.881 305.309a1.175 1.175 0 0 0-.034-.3 1.543 1.543 0 0 0-.057-.292 1.32 1.32 0 0 0-.023-.056.892.892 0 0 0-.043-.117c-2.4-5.244-7.56-8.769-12.844-8.769s-10.444 3.521-12.831 8.737a.832.832 0 0 0-.062.158l-.017.044a.618.618 0 0 0-.044.209c-.022.1-.042.3-.042.3a.794.794 0 0 0 0 .17s.02.176.03.212a1.31 1.31 0 0 0 .03.189.869.869 0 0 0 .054.165.983.983 0 0 0 .04.109c2.4 5.245 7.562 8.771 12.843 8.771s10.447-3.523 12.817-8.712a.949.949 0 0 0 .076-.188.464.464 0 0 0 .019-.047.736.736 0 0 0 .046-.225 1.754 1.754 0 0 0 .042-.359zm-1.75.064a.072.072 0 0 1 0 .012c0 .011-.008.025-.01.038-2.134 4.6-6.638 7.683-11.234 7.683s-9.082-3.077-11.236-7.691c-.005-.016-.009-.031-.015-.046s0-.027 0-.036 0-.023-.005-.034v-.012a.364.364 0 0 0 .011-.06c0-.011.007-.022.011-.034 2.134-4.6 6.643-7.687 11.239-7.687s9.106 3.089 11.233 7.683a.11.11 0 0 0 .007.023.115.115 0 0 0 .008.023c0 .034.008.068.013.085a.348.348 0 0 0-.011.053zm-11.25-4.4a4.334 4.334 0 1 0 4.334 4.334 4.339 4.339 0 0 0-4.334-4.334zm0 6.934a2.6 2.6 0 1 1 2.6-2.6 2.6 2.6 0 0 1-2.6 2.6zm0 0" transform="translate(-625.885 -295.742)" style="fill:#fff"/>
                </g>
            </g>
        </g>
    </g>
</svg>
