<svg xmlns="http://www.w3.org/2000/svg" xmlns:xlink="http://www.w3.org/1999/xlink" width="24" height="24" viewBox="0 0 24 24"><defs><clipPath id="a"><rect width="24" height="24" transform="translate(23490 601)" fill="#484741" stroke="#707070" stroke-width="1"/></clipPath></defs><g transform="translate(-23490 -601)" clip-path="url(#a)"><g transform="translate(23490.801 603.4)"><path d="M4.554,19.372a.677.677,0,0,1-.665-.55L3.71,16.143H2.174A2.177,2.177,0,0,1,0,13.968V2.174A2.177,2.177,0,0,1,2.174,0H20.323A2.177,2.177,0,0,1,22.5,2.174V13.968a2.178,2.178,0,0,1-2.175,2.175H8.641a.335.335,0,0,0-.235.094L5,19.2A.657.657,0,0,1,4.554,19.372Zm5.423-8.095h0L9.46,13.263h2.863a1.376,1.376,0,0,0,1.251-.994.807.807,0,0,0-.116-.713.757.757,0,0,0-.618-.28H9.977ZM15.471,9.29h0l-.516,1.987h2.863a1.376,1.376,0,0,0,1.251-.994.81.81,0,0,0-.117-.715.757.757,0,0,0-.618-.279H15.471ZM9.977,7.238h0L9.46,9.224h2.863a1.376,1.376,0,0,0,1.251-.993.809.809,0,0,0-.117-.714.757.757,0,0,0-.618-.28H9.977Zm-6.064,0h0L3.4,9.224H6.26a1.376,1.376,0,0,0,1.251-.993.809.809,0,0,0-.117-.714.758.758,0,0,0-.619-.28H3.912ZM15.471,5.252h0l-.516,1.986h2.863a1.376,1.376,0,0,0,1.251-.993.81.81,0,0,0-.117-.714.757.757,0,0,0-.618-.279H15.471ZM9.977,3.2h0L9.46,5.186h2.863a1.376,1.376,0,0,0,1.251-.993.809.809,0,0,0-.117-.714.757.757,0,0,0-.618-.28H9.977Zm-6.064,0h0L3.4,5.186H6.26a1.376,1.376,0,0,0,1.251-.993.809.809,0,0,0-.117-.714.758.758,0,0,0-.619-.28H3.912Z" transform="translate(0 0)" fill="#484741"/></g></g></svg>