<svg xmlns="http://www.w3.org/2000/svg" xmlns:xlink="http://www.w3.org/1999/xlink" width="24" height="24" viewBox="0 0 24 24"><defs><clipPath id="a"><rect width="24" height="24" transform="translate(1109 1654)" fill="#484741" stroke="#707070" stroke-width="1"/></clipPath></defs><g transform="translate(-1109 -1654)" clip-path="url(#a)"><path d="M25,9a11.235,11.235,0,0,1,3.147,10.067A6.59,6.59,0,0,1,29,22.333,6.669,6.669,0,0,1,22.333,29a6.59,6.59,0,0,1-3.267-.853A11.367,11.367,0,0,1,5.853,14.933,6.59,6.59,0,0,1,5,11.667,6.669,6.669,0,0,1,11.667,5a6.59,6.59,0,0,1,3.267.853A11.235,11.235,0,0,1,25,9M17.053,23.88c3.827,0,5.733-1.84,5.733-4.32,0-1.587-.747-3.28-3.64-3.933l-2.653-.587c-1.013-.227-2.16-.533-2.16-1.48s.8-1.627,2.267-1.627c2.973,0,2.693,2.04,4.173,2.04a1.3,1.3,0,0,0,1.44-1.24c0-1.827-2.92-3.2-5.4-3.2-2.68,0-5.547,1.147-5.547,4.187,0,1.467.52,3.027,3.4,3.747l3.587.907c1.08.267,1.347.867,1.347,1.427,0,.907-.907,1.8-2.547,1.8-3.213,0-2.773-2.467-4.493-2.467a1.264,1.264,0,0,0-1.333,1.293C11.227,21.907,13,23.88,17.053,23.88Z" transform="translate(1104 1649)" fill="#484741"/></g></svg>