<svg xmlns="http://www.w3.org/2000/svg" xmlns:xlink="http://www.w3.org/1999/xlink" width="30" height="30" viewBox="0 0 30 30">
  <defs>
    <clipPath id="clip-path">
      <rect id="矩形_192" data-name="矩形 192" width="30" height="30" transform="translate(1207 1263)" fill="#fff" stroke="#707070" stroke-width="1"/>
    </clipPath>
  </defs>
  <g id="蒙版组_67" data-name="蒙版组 67" transform="translate(-1207 -1263)" clip-path="url(#clip-path)">
    <path id="icon" d="M20.306,10.174a9.353,9.353,0,0,1,1.026.064c-.919-4.279-5.492-7.457-10.714-7.457C4.781,2.781,0,6.758,0,11.811c0,2.916,1.59,5.31,4.249,7.17L3.188,22.174,6.9,20.314a18.29,18.29,0,0,0,3.718.531c.334,0,.664-.015.99-.039a7.96,7.96,0,0,1-.328-2.227C11.282,13.939,15.264,10.174,20.306,10.174ZM14.6,7.3a1.25,1.25,0,0,1,1.329,1.326A1.253,1.253,0,0,1,14.6,9.949a1.489,1.489,0,0,1-1.592-1.328A1.482,1.482,0,0,1,14.6,7.3ZM7.168,9.949a1.494,1.494,0,0,1-1.6-1.328A1.49,1.49,0,0,1,7.168,7.3,1.249,1.249,0,0,1,8.494,8.621,1.253,1.253,0,0,1,7.168,9.949ZM30,18.45c0-4.245-4.249-7.7-9.021-7.7-5.053,0-9.03,3.461-9.03,7.7s3.979,7.7,9.03,7.7a13.316,13.316,0,0,0,3.186-.531l2.912,1.6-.8-2.655C28.41,22.965,30,20.844,30,18.45ZM18.051,17.121a1.061,1.061,0,1,1,0-2.123,1.211,1.211,0,0,1,1.329,1.061A1.206,1.206,0,0,1,18.051,17.121Zm5.841,0a1.061,1.061,0,0,1,0-2.123,1.216,1.216,0,0,1,1.329,1.061A1.211,1.211,0,0,1,23.891,17.121Z" transform="translate(1207 1262.999)" fill="#fff"/>
  </g>
</svg>
