<svg xmlns="http://www.w3.org/2000/svg" width="18" height="18" viewBox="0 0 18 18">
    <defs>
        <clipPath id="jasp4201ra">
            <path data-name="矩形 6124" transform="translate(1201 1517)" style="stroke:#707070;fill:#fff" d="M0 0h18v18H0z"/>
        </clipPath>
    </defs>
    <g data-name="蒙版组 281" transform="translate(-1201 -1517)" style="clip-path:url(#jasp4201ra)">
        <g data-name="组 12856">
            <path data-name="路径 38082" d="M352.586 1033.237a.337.337 0 0 0-.229-.25 1.18 1.18 0 0 0-.621.044s-13.828 4.97-14.618 5.521c-.17.119-.227.187-.255.268-.137.392.289.565.289.565l3.564 1.161a.384.384 0 0 0 .18-.01c.811-.512 8.157-5.151 8.581-5.307.067-.019.116 0 .1.049-.17.6-6.551 6.267-6.551 6.267a.306.306 0 0 0-.04.066h-.008l-.333 3.535s-.139 1.083.944 0c.764-.764 1.5-1.4 1.873-1.714 1.225.846 2.544 1.782 3.113 2.271a.989.989 0 0 0 .722.279c.54-.02.691-.614.691-.614s2.52-10.142 2.6-11.5c.008-.133.02-.218.021-.309a1.142 1.142 0 0 0-.023-.322z" transform="translate(865.365 486.443)" style="fill:#fff"/>
        </g>
    </g>
</svg>
