<svg xmlns="http://www.w3.org/2000/svg" xmlns:xlink="http://www.w3.org/1999/xlink" width="24" height="24" viewBox="0 0 24 24"><defs><clipPath id="a"><rect width="24" height="24" transform="translate(1207 1263)" fill="#484741" stroke="#707070" stroke-width="1"/></clipPath></defs><g transform="translate(-1207 -1263)" clip-path="url(#a)"><path d="M16.245,8.7a7.483,7.483,0,0,1,.82.051c-.735-3.423-4.394-5.965-8.571-5.965C3.825,2.781,0,5.962,0,10c0,2.332,1.272,4.248,3.4,5.736L2.55,18.3l2.97-1.488a14.632,14.632,0,0,0,2.975.424c.267,0,.531-.012.792-.031a6.368,6.368,0,0,1-.262-1.782A6.959,6.959,0,0,1,16.245,8.7Zm-4.566-2.3a1,1,0,0,1,1.063,1.061,1,1,0,0,1-1.063,1.062,1.191,1.191,0,0,1-1.273-1.062A1.186,1.186,0,0,1,11.679,6.393ZM5.735,8.515a1.2,1.2,0,0,1-1.28-1.062,1.192,1.192,0,0,1,1.28-1.061A1,1,0,0,1,6.8,7.453,1,1,0,0,1,5.735,8.515ZM24,15.316c0-3.4-3.4-6.164-7.216-6.164-4.043,0-7.224,2.769-7.224,6.164s3.183,6.163,7.224,6.163a10.653,10.653,0,0,0,2.549-.424l2.33,1.278-.639-2.124C22.728,18.928,24,17.232,24,15.316Zm-9.559-1.064a.849.849,0,1,1,0-1.7A.969.969,0,0,1,15.5,13.4.965.965,0,0,1,14.441,14.253Zm4.672,0a.849.849,0,0,1,0-1.7.973.973,0,0,1,1.063.849A.969.969,0,0,1,19.113,14.253Z" transform="translate(1207 1262.443)" fill="#484741"/></g></svg>