<svg xmlns="http://www.w3.org/2000/svg" xmlns:xlink="http://www.w3.org/1999/xlink" width="18" height="18" viewBox="0 0 18 18">
  <defs>
    <clipPath id="clip-path">
      <rect id="矩形_6129" data-name="矩形 6129" width="18" height="18" transform="translate(23490 601)" fill="#fff" stroke="#707070" stroke-width="1"/>
    </clipPath>
  </defs>
  <g id="蒙版组_284" data-name="蒙版组 284" transform="translate(-23490 -601)" clip-path="url(#clip-path)">
    <g id="组_12861" data-name="组 12861" transform="translate(23490.6 602.8)">
      <path id="减去_3" data-name="减去 3" d="M3.415,14.529a.507.507,0,0,1-.5-.413l-.134-2.009H1.631A1.633,1.633,0,0,1,0,10.476V1.631A1.633,1.633,0,0,1,1.631,0H15.242a1.633,1.633,0,0,1,1.631,1.631v8.845a1.633,1.633,0,0,1-1.631,1.631H6.481a.254.254,0,0,0-.176.072L3.754,14.4A.5.5,0,0,1,3.415,14.529ZM7.482,8.457h0L7.095,9.947H9.242A1.031,1.031,0,0,0,10.18,9.2a.607.607,0,0,0-.088-.536.567.567,0,0,0-.463-.209H7.482ZM11.6,6.968h0l-.387,1.489h2.147a1.033,1.033,0,0,0,.939-.745.607.607,0,0,0-.088-.535.568.568,0,0,0-.463-.209H11.6ZM7.482,5.428h0l-.387,1.49H9.242a1.031,1.031,0,0,0,.938-.745.607.607,0,0,0-.088-.536.567.567,0,0,0-.463-.21H7.482Zm-4.548,0h0l-.387,1.49H4.694a1.031,1.031,0,0,0,.938-.745.607.607,0,0,0-.088-.536.567.567,0,0,0-.463-.21H2.934ZM11.6,3.938h0l-.387,1.489h2.147a1.033,1.033,0,0,0,.939-.744.608.608,0,0,0-.089-.536.568.568,0,0,0-.463-.209H11.6ZM7.482,2.4h0L7.095,3.889H9.242a1.031,1.031,0,0,0,.938-.744.607.607,0,0,0-.088-.536.567.567,0,0,0-.463-.21H7.482Zm-4.548,0h0L2.547,3.889H4.694a1.031,1.031,0,0,0,.938-.744.607.607,0,0,0-.088-.536.567.567,0,0,0-.463-.21H2.934Z" transform="translate(0 0)" fill="#fff"/>
    </g>
  </g>
</svg>
