<svg xmlns="http://www.w3.org/2000/svg" xmlns:xlink="http://www.w3.org/1999/xlink" width="18" height="18" viewBox="0 0 18 18">
  <defs>
    <clipPath id="clip-path">
      <rect id="矩形_6115" data-name="矩形 6115" width="18" height="18" transform="translate(1207 1263)" fill="#fff" stroke="#707070" stroke-width="1"/>
    </clipPath>
  </defs>
  <g id="蒙版组_277" data-name="蒙版组 277" transform="translate(-1207 -1263)" clip-path="url(#clip-path)">
    <path id="icon" d="M12.184,7.217a5.612,5.612,0,0,1,.615.038c-.551-2.567-3.3-4.474-6.428-4.474C2.869,2.781,0,5.167,0,8.2a5.228,5.228,0,0,0,2.549,4.3l-.637,1.916L4.14,13.3a10.974,10.974,0,0,0,2.231.318c.2,0,.4-.009.594-.024a4.776,4.776,0,0,1-.2-1.337A5.219,5.219,0,0,1,12.184,7.217ZM8.759,5.49a.75.75,0,0,1,.8.8.752.752,0,0,1-.8.8.893.893,0,0,1-.955-.8A.889.889,0,0,1,8.759,5.49ZM4.3,7.082a.9.9,0,0,1-.96-.8.894.894,0,0,1,.96-.8.749.749,0,0,1,.8.8A.752.752,0,0,1,4.3,7.082Zm13.7,5.1c0-2.547-2.549-4.623-5.412-4.623-3.032,0-5.418,2.077-5.418,4.623S9.557,16.8,12.588,16.8a7.99,7.99,0,0,0,1.911-.318l1.747.958-.479-1.593A4.833,4.833,0,0,0,18,12.182Zm-7.17-.8a.637.637,0,1,1,0-1.274.727.727,0,0,1,.8.637A.724.724,0,0,1,10.83,11.385Zm3.5,0a.637.637,0,0,1,0-1.274.73.73,0,0,1,.8.637A.727.727,0,0,1,14.335,11.385Z" transform="translate(1207 1261.887)" fill="#fff"/>
  </g>
</svg>
