<svg xmlns="http://www.w3.org/2000/svg" width="16" height="16" viewBox="0 0 16 16">
    <g data-name="组 12132">
        <path data-name="路径 34109" d="M13.056 18.277a.542.542 0 0 0 0-1.083h-2.041a.542.542 0 0 0-.542.542v11.888a.542.542 0 0 0 .542.542H22.9a.542.542 0 0 0 .542-.542v-2.039a.542.542 0 1 0-1.083 0v1.5h-10.8V18.277z" transform="translate(-10.473 -14.166)" style="fill:#fff"/>
        <path data-name="路径 34110" d="M30.952 9.146H19.064a.542.542 0 0 0-.542.542v11.888a.542.542 0 0 0 .542.542h11.888a.542.542 0 0 0 .542-.542V9.688a.54.54 0 0 0-.541-.542zm-.542 11.888H19.605V10.229H30.41v10.805z" transform="translate(-15.493 -9.146)" style="fill:#fff"/>
    </g>
</svg>
