<svg xmlns="http://www.w3.org/2000/svg" width="74" height="73.999" viewBox="0 0 74 73.999">
    <path data-name="路径 2275" d="M268.38 311.416h32.067c12.543 0 20.968-8.8 20.968-21.891v-30.217c0-13.092-8.425-21.891-20.965-21.891h-32.07c-12.54 0-20.965 8.8-20.965 21.891v30.217c.001 13.092 8.425 21.891 20.965 21.891zm3.081-40.7a9.25 9.25 0 1 1 9.246-9.25 9.258 9.258 0 0 1-9.245 9.251zm41.891 14.555c1.239 3.177.6 7-.729 10.141a13.681 13.681 0 0 1-8.364 7.812 16.746 16.746 0 0 1-5.2.791h-31.187a15.278 15.278 0 0 1-8.1-2.131 2.855 2.855 0 0 1-.614-4.181 1044.22 1044.22 0 0 0 5.216-6.564c3.319-4.215 5.555-5.437 8.04-4.364a20.4 20.4 0 0 1 3.062 1.81c2.775 1.886 6.634 4.479 11.716 1.665 3.478-1.948 5.5-5.29 7.252-8.2l.03-.049.369-.61c.59-.977 1.173-1.941 1.832-2.828.826-1.112 3.888-4.586 7.854-2.112a39.884 39.884 0 0 1 6.924 5.922 8.345 8.345 0 0 1 1.9 2.899z" transform="translate(-247.416 -237.417)" style="fill:#fff;fill-rule:evenodd"/>
</svg>
