<svg xmlns="http://www.w3.org/2000/svg" xmlns:xlink="http://www.w3.org/1999/xlink" width="30" height="30" viewBox="0 0 30 30">
  <defs>
    <clipPath id="clip-path">
      <rect id="矩形_196" data-name="矩形 196" width="30" height="30" transform="translate(23490 601)" fill="#fff" stroke="#707070" stroke-width="1"/>
    </clipPath>
  </defs>
  <g id="蒙版组_70" data-name="蒙版组 70" transform="translate(-23490 -601)" clip-path="url(#clip-path)">
    <g id="组_10877" data-name="组 10877" transform="translate(183.5 -651)">
      <path id="减去_1" data-name="减去 1" d="M2191.193-322.789a.846.846,0,0,1-.832-.685l-.223-3.35h-1.92a2.722,2.722,0,0,1-2.719-2.718v-14.74a2.722,2.722,0,0,1,2.719-2.718h22.687a2.721,2.721,0,0,1,2.717,2.718v14.74a2.721,2.721,0,0,1-2.717,2.718H2196.3a.418.418,0,0,0-.292.122l-4.252,3.7A.807.807,0,0,1,2191.193-322.789Zm6.776-10.115h0l-.644,2.483h3.578a1.721,1.721,0,0,0,1.564-1.241,1.011,1.011,0,0,0-.146-.892.948.948,0,0,0-.773-.35Zm6.869-2.483h0l-.645,2.483h3.578a1.721,1.721,0,0,0,1.564-1.241,1.012,1.012,0,0,0-.146-.892.947.947,0,0,0-.772-.35Zm-6.869-2.565h0l-.644,2.483h3.578a1.722,1.722,0,0,0,1.564-1.241,1.011,1.011,0,0,0-.146-.892.948.948,0,0,0-.773-.35Zm-7.579,0h0l-.645,2.483h3.578a1.722,1.722,0,0,0,1.564-1.241,1.012,1.012,0,0,0-.146-.893.947.947,0,0,0-.773-.349Zm14.448-2.483h0l-.645,2.483h3.578a1.721,1.721,0,0,0,1.564-1.241,1.012,1.012,0,0,0-.146-.892.947.947,0,0,0-.772-.35ZM2197.969-343h0l-.644,2.483h3.578a1.721,1.721,0,0,0,1.564-1.242,1.01,1.01,0,0,0-.146-.891.948.948,0,0,0-.774-.35Zm-7.579,0h0l-.645,2.483h3.578a1.721,1.721,0,0,0,1.564-1.242,1.009,1.009,0,0,0-.146-.892.946.946,0,0,0-.773-.35Z" transform="translate(21122 1602)" fill="#fff"/>
    </g>
  </g>
</svg>
