<svg xmlns="http://www.w3.org/2000/svg" xmlns:xlink="http://www.w3.org/1999/xlink" width="24" height="24" viewBox="0 0 24 24"><defs><clipPath id="a"><rect width="24" height="24" transform="translate(1201 1517)" fill="#484741" stroke="#707070" stroke-width="1"/></clipPath></defs><g transform="translate(-1201 -1517)" clip-path="url(#a)"><g transform="translate(1202.599 1520.2)"><path d="M357.836,1033.331a.449.449,0,0,0-.306-.333,1.575,1.575,0,0,0-.828.059s-18.438,6.627-19.491,7.361c-.227.158-.3.25-.34.358-.182.523.385.753.385.753l4.752,1.548a.515.515,0,0,0,.24-.014c1.081-.683,10.877-6.869,11.442-7.077.09-.026.155,0,.138.065-.226.794-8.734,8.356-8.734,8.356a.4.4,0,0,0-.053.088l-.011-.006-.443,4.713s-.186,1.444,1.258,0c1.019-1.018,2-1.871,2.5-2.286,1.634,1.128,3.393,2.376,4.151,3.029a1.32,1.32,0,0,0,.963.372c.72-.027.922-.818.922-.818s3.36-13.523,3.472-15.335c.011-.178.026-.29.027-.412A1.521,1.521,0,0,0,357.836,1033.331Z" transform="translate(-336.835 -1032.957)" fill="#484741"/></g></g></svg>