<svg xmlns="http://www.w3.org/2000/svg" xmlns:xlink="http://www.w3.org/1999/xlink" width="30" height="30" viewBox="0 0 30 30">
  <defs>
    <clipPath id="clip-path">
      <rect id="矩形_194" data-name="矩形 194" width="30" height="30" transform="translate(1109 1654)" fill="#fff" stroke="#707070" stroke-width="1"/>
    </clipPath>
  </defs>
  <g id="蒙版组_69" data-name="蒙版组 69" transform="translate(-1109 -1654)" clip-path="url(#clip-path)">
    <path id="icon" d="M30,10a14.044,14.044,0,0,1,3.933,12.583A8.237,8.237,0,0,1,35,26.667,8.336,8.336,0,0,1,26.667,35a8.237,8.237,0,0,1-4.083-1.067A14.208,14.208,0,0,1,6.067,17.417,8.237,8.237,0,0,1,5,13.333,8.336,8.336,0,0,1,13.333,5a8.237,8.237,0,0,1,4.083,1.067A14.044,14.044,0,0,1,30,10M20.067,28.6c4.783,0,7.167-2.3,7.167-5.4,0-1.983-.933-4.1-4.55-4.917l-3.317-.733c-1.267-.283-2.7-.667-2.7-1.85,0-1.2,1-2.033,2.833-2.033,3.717,0,3.367,2.55,5.217,2.55a1.624,1.624,0,0,0,1.8-1.55c0-2.283-3.65-4-6.75-4-3.35,0-6.933,1.433-6.933,5.233,0,1.833.65,3.783,4.25,4.683l4.483,1.133c1.35.333,1.683,1.083,1.683,1.783,0,1.133-1.133,2.25-3.183,2.25-4.017,0-3.467-3.083-5.617-3.083a1.58,1.58,0,0,0-1.667,1.617C12.783,26.133,15,28.6,20.067,28.6Z" transform="translate(1104 1649)" fill="#fff"/>
  </g>
</svg>
