<svg xmlns="http://www.w3.org/2000/svg" xmlns:xlink="http://www.w3.org/1999/xlink" width="96" height="24" viewBox="0 0 96 24">
  <defs>
    <linearGradient id="linear-gradient" x1="0.5" x2="0.5" y2="1" gradientUnits="objectBoundingBox">
      <stop offset="0" stop-color="#d745e8"/>
      <stop offset="1" stop-color="#74e9f2"/>
    </linearGradient>
    <linearGradient id="linear-gradient-4" y1="0.44" x2="1" y2="0.743" gradientUnits="objectBoundingBox">
      <stop offset="0" stop-color="#6929af"/>
      <stop offset="1" stop-color="#3b2999"/>
    </linearGradient>
  </defs>
  <g id="组_326" data-name="组 326" transform="translate(1770 -610.189)">
    <g id="组_273" data-name="组 273" transform="translate(-1752.316 618.364)">
      <g id="组_240" data-name="组 240" transform="translate(0 0)">
        <g id="组_134" data-name="组 134" transform="translate(44.654 1.263)">
          <path id="路径_2177" data-name="路径 2177" d="M19.306,4.783H3.167a.336.336,0,1,1,0-.672H19.306a.336.336,0,0,1,0,.672Z" transform="translate(-2.831 -0.972)" fill="url(#linear-gradient)"/>
          <path id="路径_2178" data-name="路径 2178" d="M12.34,8.845a.336.336,0,0,1-.238-.574l2.9-2.9-2.9-2.9a.336.336,0,1,1,.475-.475l3.138,3.138a.336.336,0,0,1,0,.475L12.578,8.746A.335.335,0,0,1,12.34,8.845Z" transform="translate(0.997 -1.896)" fill="url(#linear-gradient)"/>
        </g>
        <path id="路径_2288" data-name="路径 2288" d="M4.483-6.257A4.049,4.049,0,0,0,.243-2.233a4.04,4.04,0,0,0,4.172,4.07A4.659,4.659,0,0,0,7.632.416L6.575-.732A3.071,3.071,0,0,1,4.506.2,2.4,2.4,0,0,1,2.085-2.256,2.393,2.393,0,0,1,4.506-4.7,2.881,2.881,0,0,1,6.575-3.665L7.621-4.939A4.529,4.529,0,0,0,4.483-6.257Zm8.106,1.83a2.292,2.292,0,0,0-2.115,1.148v-3.4H8.724V1.757h1.751V-1.255a1.425,1.425,0,0,1,1.41-1.569,1.135,1.135,0,0,1,1.205,1.251V1.757H14.84V-2.085A2.144,2.144,0,0,0,12.589-4.427Zm6.378.011a2.981,2.981,0,0,0-3.149,3.138,2.961,2.961,0,0,0,3.195,3.1A3.411,3.411,0,0,0,21.627.746l-.921-.932A2.168,2.168,0,0,1,19.16.461,1.563,1.563,0,0,1,17.58-.766h4.388C22.116-2.995,21.115-4.416,18.967-4.416ZM17.546-1.8a1.434,1.434,0,0,1,1.432-1.33A1.277,1.277,0,0,1,20.331-1.8Zm8.2-2.615A2.972,2.972,0,0,0,22.6-1.278a2.951,2.951,0,0,0,3.115,3.1A3,3,0,0,0,28.437.473L27.232-.346A1.587,1.587,0,0,1,25.811.37a1.5,1.5,0,0,1-1.455-1.66,1.481,1.481,0,0,1,1.455-1.637,1.686,1.686,0,0,1,1.4.648l1.182-.853A3.045,3.045,0,0,0,25.742-4.416ZM32.12-.732,33.6,1.757h2.069L33.325-1.994l2.24-2.353H33.575L31.336-2.04V-6.678H29.585V1.757h1.751V.1Z" transform="translate(-0.243 6.678)" fill="url(#linear-gradient)"/>
      </g>
    </g>
    <path id="路径_2296" data-name="路径 2296" d="M5.053,1.2A3.7,3.7,0,0,0,1.263,4.8V19.2a3.7,3.7,0,0,0,3.789,3.6H90.947a3.7,3.7,0,0,0,3.789-3.6V4.8a3.7,3.7,0,0,0-3.789-3.6H5.053m0-1.2H90.947A4.931,4.931,0,0,1,96,4.8V19.2A4.931,4.931,0,0,1,90.947,24H5.053A4.931,4.931,0,0,1,0,19.2V4.8A4.931,4.931,0,0,1,5.053,0Z" transform="translate(-1770 610.189)" fill="url(#linear-gradient-4)"/>
  </g>
</svg>
