<svg xmlns="http://www.w3.org/2000/svg" width="20" height="20" viewBox="0 0 20 20">
    <path data-name="路径 2270" d="M11.547 15.548c.094-.48-.469-1.172-1.266-1.9A13.21 13.21 0 0 0 7.8 11.825a1.155 1.155 0 0 0-1.809.887A3.865 3.865 0 0 0 6.56 15.6a2.1 2.1 0 0 0 1.7.938 12.94 12.94 0 0 0 2.411-.039 1.231 1.231 0 0 0 .876-.951zm8.011.812a.2.2 0 0 0-.324.094c-.313.992-1.747 4.395-6.725 4.746-5.85.41 3.138 1.7 5.682-.25a3.581 3.581 0 0 0 1.821-3.336 2.068 2.068 0 0 0-.455-1.254zm2.423-4.781a1.757 1.757 0 0 0-1.017-1.649.341.341 0 0 1-.23-.25 8.7 8.7 0 0 0-1.579-3.656c-.043-.059-.137-.125-.086-.2.332-.449-.012-.7-.273-.953a9.34 9.34 0 0 0-9.86-2.359A8.675 8.675 0 0 0 4.95 5.145c-.156.168-.262.355-.117.566.117.156.051.242-.039.363a8.843 8.843 0 0 0-1.536 3.583.381.381 0 0 1-.25.3 1.7 1.7 0 0 0-.973 1.328L2 12.325v.816a1.813 1.813 0 0 0 2.024 1.914.43.43 0 0 0 .469-.449c.078-3.027-.094-3.727.145-4.914A7.525 7.525 0 0 1 15.5 4.555a7.33 7.33 0 0 1 4 6.617c.031 1.1 0 2.207 0 3.3 0 .274.086.488.367.555a1.78 1.78 0 0 0 2.074-1.427 12.014 12.014 0 0 0 .039-2.021zm-6.237 5.137a2.177 2.177 0 0 0 2.282-2.363c-.082-1.766-2.587-.644-3.431-.312-2.86 1.1-1.758 2.145-.867 2.375z" transform="translate(-2.004 -2)" style="fill:#fff"/>
</svg>
