<svg xmlns="http://www.w3.org/2000/svg" xmlns:xlink="http://www.w3.org/1999/xlink" width="18" height="18" viewBox="0 0 18 18">
  <defs>
    <clipPath id="clip-path">
      <rect id="矩形_6114" data-name="矩形 6114" width="18" height="18" transform="translate(1240 1069)" fill="#fff" stroke="#707070" stroke-width="1"/>
    </clipPath>
  </defs>
  <g id="蒙版组_276" data-name="蒙版组 276" transform="translate(-1240 -1069)" clip-path="url(#clip-path)">
    <path id="icon" d="M22.964,20.887c.737-1.282.329-2.267-.976-3.253-1.534-1.159-3.033-1.938-4.111-.69,0,0-1.144,1.362-4.511-1.825-3.915-3.732-2.272-5.055-2.272-5.055,1.362-1.369.5-2.39-.646-3.936S8.153,4.092,6.5,5.422C3.306,7.985,7.805,14,10.08,16.344h0a34.446,34.446,0,0,0,5.636,4.769l1.165.651c1.67.857,3.546,1.249,4.867.454A3.454,3.454,0,0,0,22.964,20.887Z" transform="translate(1234.64 1064.349)" fill="#fff"/>
  </g>
</svg>
