<svg xmlns="http://www.w3.org/2000/svg" width="44" height="44" viewBox="0 0 44 44">
    <defs>
        <clipPath id="c3rbhord7a">
            <path data-name="矩形 6439" transform="translate(136.777 1162.777)" style="fill:#9f9f9f" d="M0 0h44v44H0z"/>
        </clipPath>
        <clipPath id="dft4p9r9lb">
            <path data-name="矩形 6441" style="stroke:#9f9f9f;stroke-width:.6px;fill:#9f9f9f" d="M0 0h38.201v43H0z"/>
        </clipPath>
    </defs>
    <g data-name="蒙版组 300" transform="translate(-136.777 -1162.777)" style="clip-path:url(#c3rbhord7a)">
        <g data-name="组 17926">
            <g data-name="组 17925">
                <g data-name="组 17924" transform="translate(138.956 1162.774)" style="clip-path:url(#dft4p9r9lb)">
                    <path data-name="路径 38123" d="M679.417 201.175a8.62 8.62 0 0 1-.732-5.125 2.2 2.2 0 0 0-2.746-2.746A9.068 9.068 0 0 0 671 197.7v.183a22.524 22.524 0 0 1 .549-11.166 1.994 1.994 0 0 0-.366-2.013 2.177 2.177 0 0 0-2.013-.732c-.366 0-8.969 1.1-12.447 10.8a30.465 30.465 0 0 0-1.281 6.406 27.569 27.569 0 0 1-.732-4.759 2.148 2.148 0 0 0-1.648-1.83 1.9 1.9 0 0 0-2.2.732 21.42 21.42 0 0 0-4.759 9.7 15.5 15.5 0 0 0 2.746 11.715 17.871 17.871 0 0 0 11.9 6.773 19.89 19.89 0 0 0 3.295.183c8.6 0 15.375-5.308 16.656-13.545a15.027 15.027 0 0 0-1.281-8.969zm-.732 8.786c-1.281 8.237-8.786 13.179-17.755 11.715-4.576-.732-8.42-2.746-10.8-6.04a13.788 13.788 0 0 1-2.38-10.433c.732-4.21 4.393-8.6 4.393-8.786a.64.64 0 0 1 .366-.183h.183c.183 0 .183.183.183.366a15.884 15.884 0 0 0 1.281 4.942 9.154 9.154 0 0 0 2.013 2.929.805.805 0 0 0 .915.183 1.006 1.006 0 0 0 .549-.915 20.166 20.166 0 0 1 1.1-8.6 14.626 14.626 0 0 1 10.982-9.7c.183 0 .183 0 .366.183v.366c-.183.732-2.379 6.955-.549 13a7.663 7.663 0 0 0 .732 1.83 1.006 1.006 0 0 0 .915.549 1.216 1.216 0 0 0 .915-.732 9.205 9.205 0 0 1 .915-2.38 5.805 5.805 0 0 1 3.844-3.478c.183 0 .366 0 .366.183a.253.253 0 0 1 0 .366 11.038 11.038 0 0 0 .732 6.406 14.064 14.064 0 0 1 .732 8.237zm0 0" transform="translate(-644.295 -182.334)" style="stroke:#9f9f9f;stroke-width:.6px;fill:#9f9f9f"/>
                </g>
            </g>
        </g>
    </g>
</svg>
