<svg xmlns="http://www.w3.org/2000/svg" width="35" height="35" viewBox="0 0 35 35">
    <defs>
        <style>
            .cls-1{fill:#fff;fill-rule:evenodd}
        </style>
    </defs>
    <g id="组_207" data-name="组 207" transform="translate(-3.584 -5.375)">
        <path id="路径_2266" data-name="路径 2266" class="cls-1" d="M37.179 39.309h-13a1.344 1.344 0 1 1 0-2.687h13a1.344 1.344 0 0 1 0 2.688z" transform="translate(.062 1.067)"/>
        <g id="组_206" data-name="组 206" transform="translate(3.584 5.375)">
            <path id="路径_2267" data-name="路径 2267" class="cls-1" d="M23.53 9.1 6.63 30.86a1.661 1.661 0 0 0-.307 1.4l1.223 5.331L13 37.518a1.685 1.685 0 0 0 1.316-.651C20.09 29.43 31.1 15.248 31.413 14.833a2.577 2.577 0 0 0 .255-1.855 2.6 2.6 0 0 0-1.17-1.639 607.798 607.798 0 0 1-3.246-2.584 2.635 2.635 0 0 0-3.722.345zM6.48 40.375a1.356 1.356 0 0 1-1.31-1.066L3.7 32.895a4.481 4.481 0 0 1 .826-3.764L21.437 7.358l.02-.024a5.287 5.287 0 0 1 7.47-.75l3.093 2.474a5.209 5.209 0 0 1 2.267 3.28 5.421 5.421 0 0 1-.661 4.067c-.056.091-.1.168-17.209 22.2a4.347 4.347 0 0 1-3.386 1.689l-6.531.081z" transform="translate(-3.584 -5.375)"/>
        </g>
        <path id="路径_2268" data-name="路径 2268" class="cls-1" d="M29.067 20.935a1.349 1.349 0 0 1-.819-.278l-9.768-7.5a1.343 1.343 0 1 1 1.638-2.13l9.77 7.5a1.345 1.345 0 0 1-.821 2.41z" transform="translate(.039 .241)"/>
    </g>
</svg>
