<svg xmlns="http://www.w3.org/2000/svg" xmlns:xlink="http://www.w3.org/1999/xlink" width="30" height="30" viewBox="0 0 30 30">
  <defs>
    <clipPath id="clip-path">
      <rect id="矩形_193" data-name="矩形 193" width="30" height="30" transform="translate(1201 1517)" fill="#fff" stroke="#707070" stroke-width="1"/>
    </clipPath>
  </defs>
  <g id="蒙版组_68" data-name="蒙版组 68" transform="translate(-1201 -1517)" clip-path="url(#clip-path)">
    <g id="组_10873" data-name="组 10873" transform="translate(581.817 -2901.623)">
      <path id="路径_58" data-name="路径 58" d="M363.086,1033.424a.562.562,0,0,0-.382-.417,1.968,1.968,0,0,0-1.035.074s-23.047,8.283-24.363,9.2c-.284.2-.378.312-.425.447-.228.653.482.941.482.941l5.94,1.935a.644.644,0,0,0,.3-.017c1.352-.854,13.6-8.586,14.3-8.846.112-.033.194.005.172.082-.283.992-10.918,10.445-10.918,10.445a.507.507,0,0,0-.066.109l-.014-.008-.554,5.892s-.232,1.805,1.573,0c1.274-1.273,2.506-2.339,3.122-2.858,2.042,1.41,4.241,2.97,5.189,3.786a1.649,1.649,0,0,0,1.2.465c.9-.034,1.152-1.023,1.152-1.023s4.2-16.9,4.34-19.168c.014-.222.033-.363.034-.516A1.9,1.9,0,0,0,363.086,1033.424Z" transform="translate(284.347 3389.666)" fill="#fff"/>
    </g>
  </g>
</svg>
