<svg xmlns="http://www.w3.org/2000/svg" xmlns:xlink="http://www.w3.org/1999/xlink" width="18" height="18" viewBox="0 0 18 18">
  <defs>
    <clipPath id="clip-path">
      <rect id="矩形_6128" data-name="矩形 6128" width="18" height="18" transform="translate(1109 1654)" fill="#fff" stroke="#707070" stroke-width="1"/>
    </clipPath>
  </defs>
  <g id="蒙版组_283" data-name="蒙版组 283" transform="translate(-1109 -1654)" clip-path="url(#clip-path)">
    <path id="icon" d="M20,8a8.426,8.426,0,0,1,2.36,7.55A4.942,4.942,0,0,1,23,18a5,5,0,0,1-5,5,4.942,4.942,0,0,1-2.45-.64,8.525,8.525,0,0,1-9.91-9.91A4.942,4.942,0,0,1,5,10a5,5,0,0,1,5-5,4.942,4.942,0,0,1,2.45.64A8.426,8.426,0,0,1,20,8M14.04,19.16c2.87,0,4.3-1.38,4.3-3.24,0-1.19-.56-2.46-2.73-2.95l-1.99-.44c-.76-.17-1.62-.4-1.62-1.11s.6-1.22,1.7-1.22c2.23,0,2.02,1.53,3.13,1.53a.975.975,0,0,0,1.08-.93c0-1.37-2.19-2.4-4.05-2.4-2.01,0-4.16.86-4.16,3.14,0,1.1.39,2.27,2.55,2.81l2.69.68c.81.2,1.01.65,1.01,1.07,0,.68-.68,1.35-1.91,1.35-2.41,0-2.08-1.85-3.37-1.85a.948.948,0,0,0-1,.97C9.67,17.68,11,19.16,14.04,19.16Z" transform="translate(1104 1649)" fill="#fff"/>
  </g>
</svg>
