<svg xmlns="http://www.w3.org/2000/svg" xmlns:xlink="http://www.w3.org/1999/xlink" width="24" height="24" viewBox="0 0 24 24"><defs><clipPath id="a"><rect width="24" height="24" transform="translate(1240 1069)" fill="#484741" stroke="#707070" stroke-width="1"/></clipPath></defs><g transform="translate(-1240 -1069)" clip-path="url(#a)"><path d="M28.822,26.3c.983-1.71.438-3.023-1.3-4.337-2.045-1.545-4.044-2.584-5.482-.919,0,0-1.525,1.816-6.014-2.433C10.8,13.634,13,11.869,13,11.869c1.815-1.825.661-3.187-.861-5.249s-3.06-2.715-5.268-.941C2.611,9.1,8.61,17.121,11.644,20.242h0s4.612,4.771,7.515,6.359l1.553.868c2.227,1.143,4.729,1.666,6.49.6A4.606,4.606,0,0,0,28.822,26.3Z" transform="translate(1234.65 1064.349)" fill="#484741"/></g></svg>