<svg data-name="组 12046" xmlns="http://www.w3.org/2000/svg" width="30" height="30" viewBox="0 0 30 30">
    <circle data-name="椭圆 25" cx="15" cy="15" r="15" style="fill:#fff"/>
    <path data-name="路径 58" d="M22.299 8.906a.343.343 0 0 0-.233-.254 1.2 1.2 0 0 0-.63.045s-14.019 5.039-14.82 5.6c-.172.12-.23.19-.259.272-.138.4.293.573.293.573l3.613 1.177a.393.393 0 0 0 .183-.011c.822-.519 8.27-5.223 8.7-5.381.068-.02.118 0 .1.05-.172.6-6.641 6.354-6.641 6.354a.308.308 0 0 0-.04.067l-.008-.005-.337 3.584s-.141 1.1.957 0a30.887 30.887 0 0 1 1.9-1.738c1.242.858 2.58 1.807 3.156 2.3a1 1 0 0 0 .732.283c.548-.021.7-.622.7-.622s2.555-10.282 2.64-11.66c.008-.135.02-.221.021-.314a1.161 1.161 0 0 0-.027-.32z"/>
</svg>
