<svg xmlns="http://www.w3.org/2000/svg" width="16" height="16" viewBox="0 0 16 16">
    <defs>
        <clipPath id="8172953nca">
            <path data-name="矩形 8364" transform="translate(601 201)" style="fill:#fff" d="M0 0h16v16H0z"/>
        </clipPath>
        <clipPath id="2ou46957jb">
            <path data-name="矩形 8363" style="fill:#898989" d="M0 0h16v14.482H0z"/>
        </clipPath>
    </defs>
    <g data-name="蒙版组 588" transform="translate(-601 -201)" style="clip-path:url(#8172953nca)">
        <g data-name="组 52058" transform="translate(601 202.518)" style="clip-path:url(#2ou46957jb)">
            <path data-name="路径 166720" d="M553.88 179.286a1.848 1.848 0 0 0 1.5 1.743v5.936h-1a.454.454 0 1 0 0 .9h14.988a.454.454 0 1 0 0-.9h-1v-5.935a1.848 1.848 0 0 0 1.5-1.743v-.452H553.88zm9.992 1.807a1.909 1.909 0 0 0 2-1.807 1.848 1.848 0 0 0 1.5 1.743v5.936h-7.494v-5.872a2.009 2.009 0 0 1 4 0zm-4.5-.063v5.936h-3v-5.936a1.516 1.516 0 1 1 3 0zm8.493-6.261h-11.987l-2 3.614h15.987zm-9.768 1-1 1.807a.256.256 0 0 1-.224.125.261.261 0 0 1-.111-.024.216.216 0 0 1-.111-.3l1-1.807a.264.264 0 0 1 .335-.1.217.217 0 0 1 .112.3zm2 0-1 1.807a.256.256 0 0 1-.224.125.261.261 0 0 1-.111-.024.216.216 0 0 1-.111-.3l1-1.807a.265.265 0 0 1 .335-.1.217.217 0 0 1 .112.3zm2.024 1.706a.251.251 0 0 1-.5 0v-1.807a.251.251 0 0 1 .5 0zm2.869.2a.268.268 0 0 1-.121.028.254.254 0 0 1-.219-.117l-1.093-1.807a.215.215 0 0 1 .1-.306.264.264 0 0 1 .34.089l1.093 1.807a.216.216 0 0 1-.1.306zm1.989 0a.255.255 0 0 1-.111.024.251.251 0 0 1-.223-.125l-1-1.807a.216.216 0 0 1 .111-.3.264.264 0 0 1 .336.1l1 1.807a.216.216 0 0 1-.113.3zm-8.854 6.642v-1.041a.442.442 0 0 1-.25-.383.5.5 0 0 1 1 0 .441.441 0 0 1-.25.383v1.041a.441.441 0 0 1 .25.383.5.5 0 0 1-1 0 .443.443 0 0 1 .25-.383zm-2.248-10.458a.478.478 0 0 1 .5-.452h10.991a.454.454 0 1 1 0 .9h-10.99a.478.478 0 0 1-.5-.452zm6.758 9.646-.353-.319 1.413-1.278.353.32zm0 1.278-.353-.319 2.826-2.555.353.32zm2.473-1.6.353.319-1.413 1.278-.353-.319zm0 0" transform="translate(-553.882 -173.406)" style="fill:#898989"/>
        </g>
    </g>
</svg>
