<svg xmlns="http://www.w3.org/2000/svg" width="48" height="48" viewBox="0 0 48 48">
    <defs>
        <clipPath id="a">
            <path data-name="矩形 3791" transform="translate(.479 -.043)" style="stroke:#707070;fill:#fff" d="M0 0h48v48H0z"/>
        </clipPath>
    </defs>
    <g style="clip-path:url(#a)">
        <path data-name="WalletConnect" d="M9.864 5.971a20.654 20.654 0 0 1 28.347 0l.942.9a.934.934 0 0 1 0 1.359l-3.223 3.091a.516.516 0 0 1-.709 0l-1.3-1.243a14.409 14.409 0 0 0-19.775 0l-1.388 1.332a.516.516 0 0 1-.709 0L8.83 8.322a.934.934 0 0 1 0-1.359zm35.012 6.392 2.868 2.751a.934.934 0 0 1 0 1.359l-12.933 12.4a1.033 1.033 0 0 1-1.417 0l-9.179-8.8a.258.258 0 0 0-.354 0l-9.179 8.8a1.033 1.033 0 0 1-1.417 0L.331 16.473a.934.934 0 0 1 0-1.359L3.2 12.363a1.033 1.033 0 0 1 1.417 0l9.179 8.8a.258.258 0 0 0 .354 0l9.179-8.8a1.033 1.033 0 0 1 1.417 0l9.179 8.8a.258.258 0 0 0 .354 0l9.179-8.8a1.033 1.033 0 0 1 1.418 0z" transform="translate(-.038 9.488)" style="fill:#fff"/>
    </g>
</svg>
