<svg width="30" height="30" viewBox="0 0 30 30" fill="none" xmlns="http://www.w3.org/2000/svg">
<circle cx="15" cy="15" r="15" fill="white"/>
<circle cx="15" cy="15" r="10" fill="black"/>
<path d="M5 5V25H25V5H5ZM21.6161 9.73661L20.5446 10.7634C20.4509 10.8348 20.4063 10.9509 20.4241 11.0625V18.6205C20.4063 18.7366 20.4509 18.8527 20.5446 18.9196L21.5938 19.9464V20.1741H16.3259V19.9554L17.4107 18.9018C17.5179 18.7946 17.5179 18.7634 17.5179 18.6027V12.4911L14.5 20.1518H14.0938L10.5804 12.4911V17.625C10.5491 17.8393 10.625 18.058 10.7768 18.2143L12.1875 19.9241V20.1518H8.17857V19.9241L9.58929 18.2143C9.74107 18.058 9.80804 17.8393 9.77232 17.625V11.6875C9.79018 11.5223 9.72768 11.3616 9.60268 11.25L8.34821 9.73661V9.50893H12.2455L15.2545 16.1161L17.9018 9.51339H21.6161V9.73661Z" fill="white"/>
</svg>
