<svg xmlns="http://www.w3.org/2000/svg" width="30" height="30" viewBox="0 0 30 30">
    <g data-name="组 20">
        <g data-name="组 13" transform="translate(-142 -29.717)">
            <circle data-name="椭圆 2" cx="15" cy="15" r="15" transform="translate(142 29.717)" style="fill:#fff"/>
        </g>
        <path data-name="路径 1095" d="M167.481 41.319a7.156 7.156 0 0 1-2 .557 3.5 3.5 0 0 0 1.527-1.948 6.867 6.867 0 0 1-2.2.853 3.455 3.455 0 0 0-2.536-1.115 3.5 3.5 0 0 0-3.47 3.526 3.651 3.651 0 0 0 .081.8 9.778 9.778 0 0 1-7.156-3.687 3.591 3.591 0 0 0-.475 1.782 3.544 3.544 0 0 0 1.543 2.929 3.383 3.383 0 0 1-1.569-.434v.039a3.528 3.528 0 0 0 2.782 3.463 3.419 3.419 0 0 1-.911.116 3.028 3.028 0 0 1-.658-.06 3.513 3.513 0 0 0 3.244 2.455 6.911 6.911 0 0 1-4.3 1.5 6.42 6.42 0 0 1-.831-.048 9.672 9.672 0 0 0 5.327 1.582 9.894 9.894 0 0 0 9.882-10.03c0-.156-.005-.306-.012-.456a7.008 7.008 0 0 0 1.732-1.824z" transform="translate(-143.303 -31.65)" style="fill:#070f08"/>
    </g>
</svg>
