<svg xmlns="http://www.w3.org/2000/svg" width="40" height="40" viewBox="0 0 40 40">
    <defs>
        <clipPath id="0mw2tgbqea">
            <path data-name="矩形 7303" transform="translate(30 261)" style="fill:#fff" d="M0 0h40v40H0z"/>
        </clipPath>
    </defs>
    <g data-name="组 23065" transform="translate(-30 -261)" style="clip-path:url(#0mw2tgbqea)">
        <path data-name="路径 150823" d="M36.539 26.8c0 11.308-11.308 12.7-11.308 12.7h-8.425s-.567-.025-1.458-.158h-.008c-2.958-.425-9.4-2.008-10.067-7.667-.525-4.45 1.383-6.667 3.767-9.642 1.875-2.325.5-5.75.417-5.958.192.1 3.25 1.817 4 3.275a11.373 11.373 0 0 1 .933 2.25s-.717-5.6 2.167-9.342 3.483-4.9 3.542-6.817A12.969 12.969 0 0 0 18.839.75a17.888 17.888 0 0 1 5.267 4.558s.558.742.8 1.108c.325.467.592.867.85 1.25a14.73 14.73 0 0 1 2.208 7.283 7.477 7.477 0 0 0 1.717-2.608 8.676 8.676 0 0 0 .192-3.425l1.758 2.975c1.975 3.617 4.908 9.842 4.908 14.909z" transform="translate(28.982 261.083)" style="fill-rule:evenodd;fill:#ff953f"/>
        <path data-name="路径 150824" d="M29.97 36.272c-.133 5.675-3.65 6.817-3.65 6.817H18.2s-.567-.025-1.458-.158h-.008a6.5 6.5 0 0 1-3.108-4.717 5.468 5.468 0 0 1 .117-2.183 7.41 7.41 0 0 1 1.975-3.4c2.433-2.608 3.992-3.583 4.625-6.517a13.521 13.521 0 0 0 .117-3.833A11.986 11.986 0 0 1 24.17 26a7.662 7.662 0 0 1 1.192 3.908 4.027 4.027 0 0 0 .925-1.4 4.846 4.846 0 0 0 .1-1.858s3.683 5.097 3.583 9.622z" transform="translate(27.585 257.495)" style="fill:#fcac44;fill-rule:evenodd"/>
        <path data-name="路径 150825" d="M26.958 28.377a4.282 4.282 0 0 1-.091 1.7 3.711 3.711 0 0 1-.843 1.286 7.088 7.088 0 0 0-1.089-3.583 11.007 11.007 0 0 0-3.4-3.405 12.488 12.488 0 0 1-.107 3.513c-.577 2.69-2.009 3.578-4.232 5.967a8.262 8.262 0 0 0-.692.793 5.187 5.187 0 0 0-1.123 2.327 5.008 5.008 0 0 0-.108 2c.146 1.348 1.263 3.793 3.211 4.464H26.9s3.22-1.039 3.343-6.249c.095-4.146-3.285-8.813-3.285-8.813z" transform="translate(27.31 257.146)" style="fill:#fcca6e;fill-rule:evenodd"/>
    </g>
</svg>
