<svg xmlns="http://www.w3.org/2000/svg" width="49" height="49" viewBox="0 0 49 49">
    <g data-name="组 91" transform="translate(-.943 -1.458)">
        <circle data-name="椭圆 11" cx="24" cy="24" r="24" transform="translate(1.443 1.958)" style="fill:none;stroke:#9a55dc"/>
        <path data-name="路径 2131" d="M28.7 21.216a6.854 6.854 0 0 0-6.68 7.033 6.854 6.854 0 0 0 6.68 7.033 6.854 6.854 0 0 0 6.68-7.033 6.854 6.854 0 0 0-6.68-7.033zm0 11.6a4.577 4.577 0 1 1 4.341-4.571A4.47 4.47 0 0 1 28.7 32.82zm6.954-13.531a1.645 1.645 0 1 0 1.56 1.643 1.718 1.718 0 0 0-.114-.628 1.649 1.649 0 0 0-.338-.533 1.556 1.556 0 0 0-.506-.356 1.493 1.493 0 0 0-.6-.122zm6.068 8.96c0-1.893.016-3.768-.085-5.658a8.4 8.4 0 0 0-2.1-5.747 7.522 7.522 0 0 0-5.459-2.212c-1.8-.106-3.579-.089-5.374-.089s-3.579-.017-5.374.089a7.53 7.53 0 0 0-5.459 2.212 8.386 8.386 0 0 0-2.1 5.747c-.1 1.893-.085 3.768-.085 5.658s-.016 3.768.085 5.658a8.4 8.4 0 0 0 2.1 5.747 7.521 7.521 0 0 0 5.459 2.212c1.8.106 3.579.089 5.374.089s3.579.017 5.374-.089a7.53 7.53 0 0 0 5.459-2.212 8.386 8.386 0 0 0 2.1-5.747c.107-1.886.087-3.762.087-5.654zm-2.866 8.085a4.384 4.384 0 0 1-.984 1.57 4.157 4.157 0 0 1-1.492 1.036c-1.713.717-5.781.556-7.68.556s-5.97.161-7.683-.552a4.128 4.128 0 0 1-1.492-1.036 4.415 4.415 0 0 1-.984-1.57c-.677-1.807-.524-6.09-.524-8.089s-.153-6.285.524-8.089a4.385 4.385 0 0 1 .984-1.571 4.2 4.2 0 0 1 1.492-1.036C22.733 16.84 26.8 17 28.7 17s5.97-.161 7.683.552a4.129 4.129 0 0 1 1.492 1.036 4.413 4.413 0 0 1 .984 1.571c.678 1.8.524 6.09.524 8.089s.156 6.283-.525 8.086z" transform="translate(-3.744 -2.084)" style="fill:#9a55dc"/>
    </g>
</svg>
