<svg xmlns="http://www.w3.org/2000/svg" xmlns:xlink="http://www.w3.org/1999/xlink" width="32" height="28" viewBox="0 0 32 28">
  <defs>
    <clipPath id="clip-path">
      <rect id="矩形_5413" data-name="矩形 5413" width="32" height="28" transform="translate(1210 2873)" fill="#fff"/>
    </clipPath>
  </defs>
  <g id="蒙版组_174" data-name="蒙版组 174" transform="translate(-1210 -2873)" clip-path="url(#clip-path)">
    <path id="路径_34011" data-name="路径 34011" d="M0,2.5V0H8.176L10.8,9.861s.155.145.187-.25L13.669.062,21.72,0V2.5l-.936.062a.838.838,0,0,0-.624.874l.062,10.61a.847.847,0,0,0,.687.562l.811.062V17.1l-7.677-.062V14.6H15.6V3.5L11.671,17.1l-2.934-.062L4.993,3.5l-.125-.062.062,11.234L6.553,14.6l-.062,2.434L.062,16.977V14.6H.936a1.156,1.156,0,0,0,.624-.687V3.308a.992.992,0,0,0-.687-.749Z" transform="translate(1215 2878)" fill="#fff" fill-rule="evenodd"/>
  </g>
</svg>
