<svg xmlns="http://www.w3.org/2000/svg" width="32" height="28" viewBox="0 0 32 28">
    <defs>
        <clipPath id="clip-path">
            <path id="矩形_205" data-name="矩形 205" class="cls-1" transform="translate(1131 2920)" d="M0 0h32v28H0z"/>
        </clipPath>
        <style>
            .cls-1{fill:#fff}
        </style>
    </defs>
    <g id="蒙版组_73" data-name="蒙版组 73" transform="translate(-1131 -2920)" style="clip-path:url(#clip-path)">
        <path id="路径_2133" data-name="路径 2133" class="cls-1" d="m12.764.826-.9.116A14.692 14.692 0 0 0 4.855 3.96H4.82L4.783 4a6.957 6.957 0 0 0-1.409 2.629A39.874 39.874 0 0 0 2 10.961 46.093 46.093 0 0 0 .449 21.984v.309l.144.309a10.438 10.438 0 0 0 4.732 4.178 11.561 11.561 0 0 0 4.334 1.392l.686.038.361-.657 1.264-2.4a20.288 20.288 0 0 0 9.317 0l1.264 2.4.362.657.685-.038a11.56 11.56 0 0 0 4.334-1.392 10.437 10.437 0 0 0 4.732-4.18l.144-.309v-.309a46.094 46.094 0 0 0-1.553-11.023 39.854 39.854 0 0 0-1.372-4.332A6.932 6.932 0 0 0 28.475 4l-.036-.04H28.4a14.687 14.687 0 0 0-7-3.017l-.9-.116-.326.89a14.551 14.551 0 0 0-.541 1.935 21.711 21.711 0 0 0-3-.233 21.625 21.625 0 0 0-3 .233 14.65 14.65 0 0 0-.542-1.935zm-1.589 2.825c.05.173.1.323.144.464A15.24 15.24 0 0 0 6.77 6.087L8 8.176c3-1.993 7.3-2.282 8.632-2.282s5.634.29 8.632 2.282l1.227-2.089a15.275 15.275 0 0 0-4.55-1.973c.045-.14.095-.29.144-.464a11.122 11.122 0 0 1 4.839 2.206 14.486 14.486 0 0 1 .831 1.74 37.3 37.3 0 0 1 1.264 4.023 44.669 44.669 0 0 1 1.445 9.94 8.813 8.813 0 0 1-3.5 2.979 10.735 10.735 0 0 1-2.816.965l-.578-1.043c.343-.136.682-.285.975-.426a11.494 11.494 0 0 0 2.745-1.74l-1.517-1.857a8.447 8.447 0 0 1-2.173 1.354 16.251 16.251 0 0 1-6.97 1.431 16.256 16.256 0 0 1-6.97-1.431 8.447 8.447 0 0 1-2.167-1.354l-1.518 1.856a11.5 11.5 0 0 0 2.745 1.74c.294.141.632.291.975.426L9.117 25.5a10.739 10.739 0 0 1-2.817-.964 8.786 8.786 0 0 1-3.5-2.978 44.532 44.532 0 0 1 1.445-9.94A37.25 37.25 0 0 1 5.505 7.6a14.49 14.49 0 0 1 .831-1.74 11.1 11.1 0 0 1 4.839-2.209zm1.409 8.431a2.732 2.732 0 0 0-2.167 1.238 4.268 4.268 0 0 0-.722 2.48 4.268 4.268 0 0 0 .722 2.475 2.732 2.732 0 0 0 2.167 1.238 2.732 2.732 0 0 0 2.167-1.238 4.269 4.269 0 0 0 .722-2.475 4.268 4.268 0 0 0-.722-2.475 2.732 2.732 0 0 0-2.167-1.243zm8.09 0a2.731 2.731 0 0 0-2.167 1.238 4.267 4.267 0 0 0-.722 2.475 4.268 4.268 0 0 0 .722 2.475 2.732 2.732 0 0 0 2.167 1.238 2.732 2.732 0 0 0 2.167-1.238 4.268 4.268 0 0 0 .722-2.475 4.267 4.267 0 0 0-.722-2.475 2.732 2.732 0 0 0-2.167-1.238zm-8.09 2.475c.064 0 .144.025.289.233a1.895 1.895 0 0 1 0 2.011c-.144.207-.225.232-.289.232s-.144-.025-.289-.233a1.895 1.895 0 0 1 0-2.011c.144-.207.225-.232.289-.232zm8.09 0c.064 0 .144.025.289.233a1.895 1.895 0 0 1 0 2.011c-.145.207-.225.232-.289.232s-.144-.025-.289-.233a1.895 1.895 0 0 1 0-2.011c.144-.207.225-.232.289-.232z" transform="translate(1130.551 2919.174)"/>
    </g>
</svg>
