<svg xmlns="http://www.w3.org/2000/svg" width="48.999" height="48.999" viewBox="0 0 48.999 48.999">
  <g id="组_20" data-name="组 20" transform="translate(-0.511 -0.257)">
    <g id="组_20-2" data-name="组 20" transform="translate(0.513 0.257)">
      <g id="椭圆_1_拷贝_3" data-name="椭圆 1 拷贝 3">
        <circle id="椭圆_1_拷贝_3-2" data-name="椭圆 1 拷贝 3" cx="23.999" cy="23.999" r="23.999" transform="translate(0.498 0.5)" fill="none" stroke="#9a55dc" stroke-width="1"/>
        <path id="路径_34010" data-name="路径 34010" d="M0,3.277V0H10.733l3.441,12.946s.2.19.246-.328L17.944.082,28.513,0V3.277l-1.229.082a1.1,1.1,0,0,0-.819,1.147l.082,13.929a1.112,1.112,0,0,0,.9.737l1.065.082v3.2l-10.078-.082v-3.2h2.048V4.588L15.322,22.45l-3.851-.082L6.555,4.588l-.164-.082.082,14.748,2.13-.082-.082,3.2L.082,22.286V19.173H1.229a1.518,1.518,0,0,0,.819-.9V4.343a1.3,1.3,0,0,0-.9-.983Z" transform="translate(9.998 13)" fill="#9a55dc" fill-rule="evenodd"/>
      </g>
    </g>
  </g>
</svg>
