<svg data-name="组 10884" xmlns="http://www.w3.org/2000/svg" width="52" height="52" viewBox="0 0 52 52">
    <defs>
        <linearGradient id="a" y1=".5" x2="1" y2=".5" gradientUnits="objectBoundingBox">
            <stop offset="0" stop-color="#919191"/>
            <stop offset=".261" stop-color="#9f9f9f" stop-opacity=".541"/>
            <stop offset=".69" stop-color="#3b393d" stop-opacity=".027"/>
            <stop offset="1" stop-color="#383838" stop-opacity="0"/>
        </linearGradient>
    </defs>
    <path data-name="椭圆 17" d="M25-1a26.007 26.007 0 0 1 10.121 49.956A26.006 26.006 0 0 1 14.879 1.044 25.838 25.838 0 0 1 25-1zm0 50a24.007 24.007 0 0 0 9.342-46.114 24.006 24.006 0 0 0-18.684 44.228A23.849 23.849 0 0 0 25 49z" transform="translate(1 1)" style="fill:url(#a)"/>
    <path data-name="路径 2157" d="m27.222 36.733-6.25-8.544 6.25-8.544" transform="translate(1.528 -2.145)" style="stroke:#bcbcbc;stroke-linecap:round;stroke-linejoin:round;stroke-width:2px;fill:url(#a)"/>
</svg>
