<svg xmlns="http://www.w3.org/2000/svg" width="49" height="49" viewBox="0 0 49 49">
  <g id="组_12057" data-name="组 12057" transform="translate(-1381 -4707.417)">
    <circle id="椭圆_14" data-name="椭圆 14" cx="24" cy="24" r="24" transform="translate(1381.5 4707.917)" fill="none" stroke="#9a55dc" stroke-width="1"/>
    <path id="路径_2149" data-name="路径 2149" d="M68.486,172.858a11.79,11.79,0,0,1-3.309.92,5.773,5.773,0,0,0,2.526-3.222,11.327,11.327,0,0,1-3.642,1.411,5.718,5.718,0,0,0-4.195-1.845,5.785,5.785,0,0,0-5.739,5.832,6.079,6.079,0,0,0,.133,1.329,16.18,16.18,0,0,1-11.837-6.1,5.938,5.938,0,0,0-.786,2.947,5.859,5.859,0,0,0,2.551,4.844,5.572,5.572,0,0,1-2.595-.718v.066a5.836,5.836,0,0,0,4.6,5.728,5.662,5.662,0,0,1-1.506.191,5.064,5.064,0,0,1-1.087-.1,5.808,5.808,0,0,0,5.366,4.06,11.43,11.43,0,0,1-7.12,2.488,10.519,10.519,0,0,1-1.374-.082,15.992,15.992,0,0,0,8.81,2.617c10.568,0,16.345-8.888,16.345-16.59,0-.257-.009-.507-.021-.754A11.555,11.555,0,0,0,68.486,172.858Z" transform="translate(1351.02 4550.242)" fill="#9a55dc"/>
  </g>
</svg>
