<svg xmlns="http://www.w3.org/2000/svg" xmlns:xlink="http://www.w3.org/1999/xlink" width="32" height="28" viewBox="0 0 32 28">
  <defs>
    <clipPath id="clip-path">
      <rect id="矩形_5411" data-name="矩形 5411" width="32" height="28" transform="translate(1294 2804)" fill="#fff"/>
    </clipPath>
  </defs>
  <g id="蒙版组_170" data-name="蒙版组 170" transform="translate(-1294 -2804)" clip-path="url(#clip-path)">
    <path id="路径_34005" data-name="路径 34005" d="M63.817,172.4a9.825,9.825,0,0,1-2.757.767,4.811,4.811,0,0,0,2.105-2.685,9.439,9.439,0,0,1-3.035,1.176,4.765,4.765,0,0,0-3.5-1.537,4.821,4.821,0,0,0-4.782,4.86,5.065,5.065,0,0,0,.111,1.108,13.483,13.483,0,0,1-9.864-5.082,4.949,4.949,0,0,0-.655,2.456,4.882,4.882,0,0,0,2.126,4.037,4.643,4.643,0,0,1-2.162-.6v.055a4.863,4.863,0,0,0,3.834,4.773,4.718,4.718,0,0,1-1.255.159,4.221,4.221,0,0,1-.906-.081,4.84,4.84,0,0,0,4.472,3.383,9.525,9.525,0,0,1-5.934,2.073,8.765,8.765,0,0,1-1.145-.068,13.327,13.327,0,0,0,7.341,2.181c8.806,0,13.621-7.407,13.621-13.825,0-.214-.007-.422-.017-.629A9.63,9.63,0,0,0,63.817,172.4Z" transform="translate(1257.896 2638.25)" fill="#fff"/>
  </g>
</svg>
