<svg xmlns="http://www.w3.org/2000/svg" width="48" height="48" viewBox="0 0 48 48">
    <defs>
        <linearGradient id="nfkezfdaqb" x1=".204" y1=".036" x2=".846" y2="1.08" gradientUnits="objectBoundingBox">
            <stop offset="0" stop-color="#ff953f"/>
            <stop offset="1" stop-color="#ff953f"/>
        </linearGradient>
        <clipPath id="wxnkzcngba">
            <path data-name="矩形 7497" transform="translate(30 261)" style="fill:#fff" d="M0 0h48v48H0z"/>
        </clipPath>
    </defs>
    <g data-name="组 23619" transform="translate(-30 -261)" style="clip-path:url(#wxnkzcngba)">
        <path data-name="路径 152905" d="m31.047 38.062-9.495.97c-4.81.067-7.748 4.522-8.353 5.53a.857.857 0 0 0-.115.432l.01 3.226a.86.86 0 0 1-.806.854l-2.467.115a.85.85 0 0 0-.518.2l-2.977 2.584a.845.845 0 0 0-.048 1.238l6.106 6.212a.849.849 0 0 0 1.2.01l2.813-2.8a.853.853 0 0 0 .25-.643l-.115-2.448a.849.849 0 0 1 .893-.883l3.475.173 3.475 4.068a1.158 1.158 0 0 0 .3 1.133l19.556 21.4a1.1 1.1 0 0 0 1.569.167l1.92-1.9 1.92-1.9a1.109 1.109 0 0 0-.163-1.574L28.292 54.44a1.2 1.2 0 0 0-1.133-.307l-4.032-3.523-.048-.01a.867.867 0 0 0-.038-.269c-1.93-6.24 5.511-9.591 8.381-10.628a.849.849 0 0 0-.374-1.642z" style="fill:url(#nfkezfdaqb)" transform="translate(23.969 226.019)"/>
        <path data-name="路径 152906" d="m121.478 49.207-.154-.586-.538.278a19.2 19.2 0 0 0-2.439 1.565c-.624.451-1.277.912-1.939 1.3-.8.451-2.823 1.392-4.5.49a3.067 3.067 0 0 1-1.037-4.2 6.5 6.5 0 0 1 1.987-1.671c.384-.24.768-.48 1.162-.72.778-.48 1.574-.97 2.333-1.5.634-.442.922-.8.97-1.181.106-.845-.95-1.19-1.574-1.4a9.116 9.116 0 0 0-11.521 5.674 11.063 11.063 0 0 0-.547 3.994 6.788 6.788 0 0 0 .173 1.325l-4.858 5.088 6.3 5.885 4.186-4.378a5.843 5.843 0 0 0 3.072.374 11.013 11.013 0 0 0 6.845-3.13 7.916 7.916 0 0 0 2.079-7.207zM92.907 64.021 82.058 75.378a4.312 4.312 0 0 0 6.231 5.962l10.445-10.935zm-5.828 14.948a1.643 1.643 0 1 1-.058-2.323 1.649 1.649 0 0 1 .058 2.323z" transform="translate(-43.68 223.255)" style="fill:#fcca6e"/>
    </g>
</svg>
