<svg xmlns="http://www.w3.org/2000/svg" width="32" height="28" viewBox="0 0 32 28">
    <defs>
        <clipPath id="a">
            <path data-name="矩形 206" transform="translate(1148 2973)" style="stroke:#707070;fill:#fff" d="M0 0h32v28H0z"/>
        </clipPath>
    </defs>
    <g data-name="蒙版组 74" transform="translate(-1148 -2973)" style="clip-path:url(#a)">
        <path data-name="路径 2305" d="M28.7 21.331a6.92 6.92 0 0 0-6.68 7.154 6.919 6.919 0 0 0 6.68 7.154 6.919 6.919 0 0 0 6.68-7.154 6.92 6.92 0 0 0-6.68-7.154zm0 11.8a4.661 4.661 0 0 1 0-9.3 4.661 4.661 0 0 1 0 9.3zm6.954-13.764a1.675 1.675 0 1 0 1.56 1.671 1.774 1.774 0 0 0-.118-.64 1.682 1.682 0 0 0-.338-.542 1.556 1.556 0 0 0-.506-.362 1.471 1.471 0 0 0-.596-.123zm6.068 9.115c0-1.926.016-3.834-.085-5.756a8.629 8.629 0 0 0-2.1-5.846 7.456 7.456 0 0 0-5.459-2.25c-1.8-.108-3.579-.091-5.374-.091s-3.579-.017-5.374.091a7.464 7.464 0 0 0-5.459 2.25 8.619 8.619 0 0 0-2.1 5.846c-.1 1.925-.085 3.833-.085 5.756s-.016 3.833.085 5.755a8.628 8.628 0 0 0 2.1 5.846 7.455 7.455 0 0 0 5.459 2.25c1.8.108 3.579.091 5.374.091s3.579.017 5.374-.091a7.464 7.464 0 0 0 5.459-2.25 8.619 8.619 0 0 0 2.1-5.846c.107-1.918.087-3.826.087-5.752zm-2.864 8.228a4.471 4.471 0 0 1-.984 1.6 4.157 4.157 0 0 1-1.492 1.053c-1.713.729-5.781.565-7.68.565s-5.97.164-7.683-.562a4.127 4.127 0 0 1-1.492-1.053 4.5 4.5 0 0 1-.984-1.6c-.677-1.838-.524-6.195-.524-8.228s-.153-6.394.524-8.229a4.472 4.472 0 0 1 .984-1.6 4.2 4.2 0 0 1 1.492-1.053c1.713-.726 5.784-.562 7.683-.562s5.97-.164 7.683.562a4.129 4.129 0 0 1 1.492 1.053 4.5 4.5 0 0 1 .984 1.6c.678 1.835.524 6.195.524 8.229s.154 6.39-.527 8.225z" transform="translate(1135.313 2958.458)" style="fill:#fff"/>
    </g>
</svg>
