<svg xmlns="http://www.w3.org/2000/svg" xmlns:xlink="http://www.w3.org/1999/xlink" width="32" height="28" viewBox="0 0 32 28">
  <defs>
    <clipPath id="clip-path">
      <rect id="矩形_5409" data-name="矩形 5409" width="32" height="28" transform="translate(1075 2732)" fill="#fff"/>
    </clipPath>
    <clipPath id="clip-path-2">
      <rect id="矩形_5410" data-name="矩形 5410" width="25.802" height="26" transform="translate(1391 4795.417)" fill="#fff"/>
    </clipPath>
  </defs>
  <g id="蒙版组_172" data-name="蒙版组 172" transform="translate(-1075 -2732)" clip-path="url(#clip-path)">
    <g id="蒙版组_168" data-name="蒙版组 168" transform="translate(-313 -2062.417)" clip-path="url(#clip-path-2)">
      <path id="路径_34004" data-name="路径 34004" d="M9.8,14.731l-.413,6.24a1.413,1.413,0,0,0,1.154-.6l2.772-2.844,5.743,4.516c1.053.63,1.8.3,2.08-1.04l3.77-18.967h0C25.243.363,24.346-.291,23.32.119L1.16,9.228C-.353,9.858-.33,10.763.9,11.174l5.665,1.892,13.16-8.841c.619-.44,1.182-.2.719.244Z" transform="translate(1391 4796.732)" fill="#fff"/>
    </g>
  </g>
</svg>
