<svg data-name="组 11400" xmlns="http://www.w3.org/2000/svg" width="20" height="14.54" viewBox="0 0 20 14.54">
    <defs>
        <linearGradient id="a" x1=".053" y1=".407" x2=".875" y2=".5" gradientUnits="objectBoundingBox">
            <stop offset="0" stop-color="#e933f0"/>
            <stop offset="1" stop-color="#74e9f2"/>
        </linearGradient>
    </defs>
    <path data-name="路径 2173" d="M10.011 14.522h-.052a4.126 4.126 0 0 1-2.975-1.279 4.07 4.07 0 0 1-.342-.411L1.165 7.073a4.224 4.224 0 0 1 .035-5.84 4.1 4.1 0 0 1 5.9.012l.02.02 2.897 3.045 2.956-3.043a4.1 4.1 0 0 1 5.873.087 4.2 4.2 0 0 1-.031 5.837L13.3 12.868a4.135 4.135 0 0 1-.341.4l-.008.008a4.074 4.074 0 0 1-2.94 1.246zm-.031-3.627h.032a.46.46 0 0 0 .336-.146.516.516 0 0 0 .054-.068l.088-.129 5.71-5.884a.6.6 0 0 0 0-.818.46.46 0 0 0-.68 0l-5.539 5.7-5.5-5.789a.46.46 0 0 0-.68 0 .6.6 0 0 0 0 .817l5.678 5.972.087.13a.493.493 0 0 0 .052.067.46.46 0 0 0 .341.151z" transform="translate(-.009 .017)" style="fill:url(#a)"/>
    <path data-name="路径 2174" d="M10.836 11.189a2.32 2.32 0 0 1-3.6-.33l-5.57-5.851a2.41 2.41 0 0 1 .017-3.326 2.281 2.281 0 0 1 3.3.018l4.2 4.413 4.22-4.343a2.281 2.281 0 0 1 3.3.018 2.411 2.411 0 0 1-.017 3.325l-5.605 5.769a2.333 2.333 0 0 1-.245.307z" transform="translate(.808 .835)" style="fill:#fff"/>
</svg>
