<svg xmlns="http://www.w3.org/2000/svg" width="44" height="44" viewBox="0 0 44 44">
    <defs>
        <linearGradient id="l5g41ra6oa" x1=".241" y1=".071" x2="1.122" y2="1" gradientUnits="objectBoundingBox">
            <stop offset="0" stop-color="#e755fa"/>
            <stop offset="1" stop-color="#38d1ff"/>
        </linearGradient>
    </defs>
    <path data-name="路径 32122" d="M17.969 35.6a18.082 18.082 0 0 0 10.445-3.333L39.49 43.236a2.663 2.663 0 0 0 1.893.764A2.568 2.568 0 0 0 44 41.361a2.537 2.537 0 0 0-.748-1.852L32.246 28.585A17.62 17.62 0 0 0 35.938 17.8 17.97 17.97 0 0 0 0 17.8a17.921 17.921 0 0 0 17.969 17.8zm0-3.842A14.1 14.1 0 0 1 3.879 17.8a14.091 14.091 0 0 1 28.181 0 14.115 14.115 0 0 1-14.091 13.956z" style="fill:url(#l5g41ra6oa)"/>
</svg>
