<svg data-name="组 11171" xmlns="http://www.w3.org/2000/svg" width="34" height="34" viewBox="0 0 34 34">
    <path data-name="路径 29876" d="M656.921 216h-18.79a3.132 3.132 0 0 0-3.131 3.132v18.789a3.132 3.132 0 0 0 3.132 3.132h18.79a3.131 3.131 0 0 0 3.131-3.132v-18.789a3.131 3.131 0 0 0-3.132-3.132zm0 2.684a.447.447 0 0 1 .447.447v18.789a.447.447 0 0 1-.447.447h-18.79a.447.447 0 0 1-.447-.447v-18.788a.447.447 0 0 1 .447-.447zm-10.29 25.053a1.342 1.342 0 1 0-2.684 0v3.132a3.132 3.132 0 0 0 3.132 3.131h18.789a3.132 3.132 0 0 0 3.132-3.132v-18.79a3.131 3.131 0 0 0-3.132-3.131h-3.131a1.342 1.342 0 1 0 0 2.684h3.131a.447.447 0 0 1 .448.447v18.79a.447.447 0 0 1-.448.447h-18.789a.447.447 0 0 1-.447-.447zm0 0" transform="translate(-635 -216)" style="fill:#fff"/>
</svg>
