<svg xmlns="http://www.w3.org/2000/svg" width="11.004" height="8" viewBox="0 0 11.004 8">
    <defs>
        <linearGradient id="a" x1=".053" y1=".407" x2=".875" y2=".5" gradientUnits="objectBoundingBox">
            <stop offset="0" stop-color="#e933f0"/>
            <stop offset="1" stop-color="#74e9f2"/>
        </linearGradient>
    </defs>
    <g data-name="组 120" style="opacity:.6">
        <path data-name="路径 2173" d="M5.512 7.983h-.028a2.27 2.27 0 0 1-1.637-.7 2.239 2.239 0 0 1-.188-.226L.645 3.884A2.324 2.324 0 0 1 .662.671a2.256 2.256 0 0 1 3.25.007l.011.011 1.593 1.675L7.142.689a2.255 2.255 0 0 1 3.232.048 2.312 2.312 0 0 1-.017 3.212L7.323 7.072a2.275 2.275 0 0 1-.188.221 2.242 2.242 0 0 1-1.623.69zm-.017-2h.017a.253.253 0 0 0 .185-.08.284.284 0 0 0 .03-.037l.049-.066L8.92 2.56a.332.332 0 0 0 0-.45.253.253 0 0 0-.374 0L5.5 5.247 2.472 2.062a.253.253 0 0 0-.374 0 .332.332 0 0 0 0 .449L5.22 5.8l.048.072A.271.271 0 0 0 5.3 5.9a.253.253 0 0 0 .187.083z" transform="translate(-.009 .017)" style="fill:url(#a)"/>
        <path data-name="路径 2174" d="M6.416 6.6a1.277 1.277 0 0 1-1.981-.181L1.371 3.2a1.326 1.326 0 0 1 .01-1.83 1.255 1.255 0 0 1 1.817.01l2.31 2.428L7.83 1.416a1.255 1.255 0 0 1 1.818.01 1.327 1.327 0 0 1-.01 1.83L6.554 6.429a1.283 1.283 0 0 1-.138.171z" transform="translate(-.009 .017)" style="fill:#fff"/>
    </g>
</svg>
