<svg xmlns="http://www.w3.org/2000/svg" width="34" height="34" viewBox="0 0 34 34">
    <g data-name="组 51993" transform="translate(-1560 -179.449)">
        <circle data-name="椭圆 1389" cx="17" cy="17" r="17" transform="translate(1560 179.449)" style="fill:#424ddb"/>
        <path data-name="路径 2172" d="M7.327 14.515a7.373 7.373 0 0 0 4.259-1.359l4.514 4.473a1.086 1.086 0 0 0 .772.311 1.047 1.047 0 0 0 1.067-1.076 1.034 1.034 0 0 0-.3-.755l-4.488-4.454a7.184 7.184 0 0 0 1.505-4.4A7.327 7.327 0 0 0 0 7.257a7.307 7.307 0 0 0 7.327 7.258zm0-1.567a5.749 5.749 0 0 1-5.745-5.691 5.745 5.745 0 0 1 11.49 0 5.755 5.755 0 0 1-5.745 5.691z" transform="translate(1568.03 187.479)" style="fill:#fff"/>
    </g>
</svg>
