<svg xmlns="http://www.w3.org/2000/svg" width="34" height="34" viewBox="0 0 34 34">
    <defs>
        <clipPath id="b62vq4zv1a">
            <path data-name="矩形 7529" transform="translate(272 895)" style="fill:#fff" d="M0 0h34v34H0z"/>
        </clipPath>
        <clipPath id="zkxgssowfb">
            <path data-name="矩形 7528" style="fill:#fff" d="M0 0h24v22.521H0z"/>
        </clipPath>
    </defs>
    <g data-name="蒙版组 481" transform="translate(-272 -895)" style="clip-path:url(#b62vq4zv1a)">
        <g data-name="组 23661">
            <g data-name="组 23660">
                <g data-name="组 23659" transform="translate(277 901)" style="clip-path:url(#zkxgssowfb)">
                    <path data-name="路径 152926" d="M607.1 211.466a1.93 1.93 0 0 1 1.414.59 1.961 1.961 0 0 1 .591 1.442 2.01 2.01 0 0 1-3.433 1.414 1.953 1.953 0 0 1-.577-1.414 1.985 1.985 0 0 1 .577-1.442 1.916 1.916 0 0 1 1.428-.59zm16.231-6.591a2.387 2.387 0 0 1 1.854.769 2.537 2.537 0 0 1 .7 1.758v14.776a1.435 1.435 0 0 1-.453 1.071 1.5 1.5 0 0 1-1.085.44h-1.897v-3.323h1.181a.713.713 0 0 0 .522-.22.745.745 0 0 0 .22-.549.75.75 0 0 0-.742-.741h-1.181v-2.142h1.181a.75.75 0 0 0 .742-.741.759.759 0 0 0-.22-.536.693.693 0 0 0-.522-.233h-1.181v-1.95h1.181a.712.712 0 0 0 .522-.22.745.745 0 0 0 .22-.549.75.75 0 0 0-.742-.741h-1.181v-2.307a2.785 2.785 0 0 0-.714-2.17 3.645 3.645 0 0 0-2.417-.632h-10.573v-.247a1.436 1.436 0 0 1 .453-1.071 1.5 1.5 0 0 1 1.085-.439zm-4.614 3.406a1.845 1.845 0 0 1 1.552.618 2.542 2.542 0 0 1 .481 1.607v15.16a1.647 1.647 0 0 1-.522 1.167 1.73 1.73 0 0 1-1.291.536h-15.354a1.593 1.593 0 0 1-1.181-.549 1.813 1.813 0 0 1-.522-1.291v-15.436a1.923 1.923 0 0 1 .439-1.3 1.452 1.452 0 0 1 1.154-.508zm.3 2.884a1.22 1.22 0 0 0-.288-.81 1.137 1.137 0 0 0-.92-.343h-13.1a1.542 1.542 0 0 0-.3.041 1.619 1.619 0 0 0-.385.137 1.016 1.016 0 0 0-.33.261.622.622 0 0 0-.137.412v7.36a6.719 6.719 0 0 0 .618.59 5.19 5.19 0 0 0 .934.632 6.78 6.78 0 0 0 1.195.494 4.767 4.767 0 0 0 1.428.206 5.091 5.091 0 0 0 2.019-.371 7.587 7.587 0 0 0 1.607-.934q.742-.563 1.456-1.208a13.59 13.59 0 0 1 1.579-1.222 9.045 9.045 0 0 1 1.977-.975 8.827 8.827 0 0 1 2.65-.453zm0 0" transform="translate(-601.884 -204.879)" style="fill:#fff"/>
                </g>
            </g>
        </g>
    </g>
</svg>
