<svg xmlns="http://www.w3.org/2000/svg" width="34" height="34" viewBox="0 0 34 34">
    <g data-name="组 51984">
        <g data-name="组 23628">
            <g data-name="椭圆 1389" style="fill:#202136;stroke:#4f5776">
                <circle cx="17" cy="17" r="17" style="stroke:none"/>
                <circle cx="17" cy="17" r="16.5" style="fill:none"/>
            </g>
        </g>
        <path data-name="路径 152909" d="M.011 6.836c.014.046.024.094.042.139a.749.749 0 0 0 .161.242l5.95 5.95a1 1 0 0 0 .241.161.744.744 0 0 0 .9-1.1c-.027-.041-.062-.075-.092-.113L1.792 6.69l5.424-5.423.092-.113c.023-.043.05-.084.068-.129A.762.762 0 0 0 7.1.122a.761.761 0 0 0-.827 0C6.237.15 6.2.184 6.165.215L.214 6.165c-.03.038-.065.072-.092.113a.745.745 0 0 0-.111.268 1.029 1.029 0 0 0 0 .291z" transform="rotate(-90 16.37 6.06)" style="fill:#fff"/>
    </g>
</svg>
