<svg xmlns="http://www.w3.org/2000/svg" width="290" height="50" viewBox="0 0 290 50">
    <g data-name="组 52283">
        <g data-name="路径 174764" style="fill:#343650">
            <path d="M280 49.5H10C4.762 49.5.5 45.238.5 40V10C.5 4.762 4.762.5 10 .5h270c5.238 0 9.5 4.262 9.5 9.5v30c0 5.238-4.262 9.5-9.5 9.5z" style="stroke:none"/>
            <path d="M10 1c-4.963 0-9 4.037-9 9v30c0 4.963 4.037 9 9 9h270c4.963 0 9-4.037 9-9V10c0-4.963-4.037-9-9-9H10m0-1h270c5.523 0 10 4.477 10 10v30c0 5.523-4.477 10-10 10H10C4.477 50 0 45.523 0 40V10C0 4.477 4.477 0 10 0z" style="fill:#9b63ed;stroke:none"/>
        </g>
    </g>
</svg>
