<svg xmlns="http://www.w3.org/2000/svg" width="34" height="34" viewBox="0 0 34 34">
    <g data-name="组 51985">
        <g data-name="组 50587">
            <g data-name="椭圆 1389" style="fill:#202136;stroke:#4f5776">
                <circle cx="17" cy="17" r="17" style="stroke:none"/>
                <circle cx="17" cy="17" r="16.5" style="fill:none"/>
            </g>
        </g>
        <path data-name="路径 153726" d="M.011 6.544c.014-.044.023-.094.042-.139a.749.749 0 0 1 .161-.242L6.165.214a1 1 0 0 1 .241-.161.765.765 0 0 1 .9.274.761.761 0 0 1 0 .827c-.027.041-.062.075-.092.113L1.792 6.69l5.424 5.423.092.113c.023.043.05.084.068.129a.744.744 0 0 1-1.1.9c-.04-.028-.075-.062-.112-.093L.214 7.216C.184 7.178.149 7.144.122 7.1a.745.745 0 0 1-.111-.268 1.029 1.029 0 0 1 0-.291z" transform="rotate(90 5.202 18.488)" style="fill:#fff"/>
    </g>
</svg>
