<svg xmlns="http://www.w3.org/2000/svg" width="34" height="34" viewBox="0 0 34 34">
    <defs>
        <clipPath id="dg0s5i9pka">
            <path data-name="矩形 7521" style="fill:#fff" d="M0 0h34v34H0z"/>
        </clipPath>
    </defs>
    <g data-name="蒙版组 476" transform="rotate(-90 17 17)" style="clip-path:url(#dg0s5i9pka)">
        <path data-name="路径 152915" d="M34 0v34H0V0z" style="fill:none;fill-rule:evenodd"/>
        <path data-name="路径 152916" d="M10.606 9.354c-.02-.066-.034-.135-.061-.2a1.07 1.07 0 0 0-.231-.345L1.81.306a1.425 1.425 0 0 0-.345-.23 1.094 1.094 0 0 0-1.29.391 1.087 1.087 0 0 0 0 1.181c.038.058.088.107.132.162l7.752 7.753-7.753 7.752-.132.162c-.033.062-.071.12-.1.184a1.089 1.089 0 0 0 .391 1.291 1.087 1.087 0 0 0 1.181 0c.057-.039.107-.088.16-.133l8.505-8.5c.044-.054.094-.1.132-.162a1.065 1.065 0 0 0 .159-.382 1.471 1.471 0 0 0 .004-.421z" transform="translate(11.689 7.437)" style="fill:#fff"/>
    </g>
</svg>
