<svg xmlns="http://www.w3.org/2000/svg" xmlns:xlink="http://www.w3.org/1999/xlink" width="234" height="50" viewBox="0 0 234 50">
  <defs>
    <linearGradient id="linear-gradient" y1="0.339" x2="1" y2="0.571" gradientUnits="objectBoundingBox">
      <stop offset="0" stop-color="#6929af"/>
      <stop offset="1" stop-color="#3b2999"/>
    </linearGradient>
  </defs>
  <path id="矩形_5318" data-name="矩形 5318" d="M10,1a9.01,9.01,0,0,0-9,9V40a9.01,9.01,0,0,0,9,9H224a9.01,9.01,0,0,0,9-9V10a9.01,9.01,0,0,0-9-9H10m0-1H224a10,10,0,0,1,10,10V40a10,10,0,0,1-10,10H10A10,10,0,0,1,0,40V10A10,10,0,0,1,10,0Z" fill="url(#linear-gradient)"/>
</svg>
