<svg xmlns="http://www.w3.org/2000/svg" width="120" height="44" viewBox="0 0 120 44">
    <defs>
        <clipPath id="k9oveckaja">
            <circle data-name="椭圆 984" cx="18.48" cy="18.48" r="18.48" transform="translate(632 94)" style="fill:#fff"/>
        </clipPath>
    </defs>
    <g data-name="组 23393">
        <g transform="translate(-559 -90)">
            <rect data-name="矩形 3188" width="120" height="44" rx="22" transform="translate(559 90)" style="fill:#cb1d23"/>
            <g data-name="组 17604">
                <g data-name="椭圆 985" transform="translate(563 94)" style="stroke:#fff;fill:#fff">
                    <circle cx="18.48" cy="18.48" r="18.48" style="stroke:none"/>
                    <circle cx="18.48" cy="18.48" r="18.98" style="fill:none"/>
                </g>
                <g data-name="蒙版组 153" style="clip-path:url(#k9oveckaja)" transform="translate(-69)">
                    <g data-name="组 17603">
                        <path data-name="矩形 4856" transform="translate(627.1 94)" style="fill:#cb1d23" d="M0 0h66.135v38.57H0z"/>
                        <path data-name="路径 53314" d="m4.222 12.056 1.242-3.849L2.2 5.813l4.041-.008 1.263-3.84 1.257 3.84 4.043.016-3.263 2.386 1.235 3.848L7.5 9.677z" transform="translate(632.427 100.159)" style="fill:#f7de29"/>
                        <path data-name="路径 53315" d="m9.031 8.425 1.368.554.95-1.131-.1 1.47 1.366.554-1.429.363-.106 1.454-.782-1.239-1.431.35.942-1.123z" transform="translate(638.894 105.868)" style="fill:#f7de29"/>
                        <path data-name="路径 53316" d="m14.575 5.755-1.45-.255-.7 1.3-.2-1.454-1.454-.27 1.322-.638-.2-1.462 1.027 1.055 1.322-.638-.692 1.3z" transform="translate(640.743 101.141)" style="fill:#f7de29"/>
                        <path data-name="路径 53317" d="m11.5 9.538.447-1.4-1.186-.869h1.479l.455-1.4.457 1.4h1.474l-1.188.869.447 1.4-1.19-.861z" transform="translate(640.737 103.946)" style="fill:#f7de29"/>
                        <path data-name="路径 53318" d="m9.131 1.465 1.334.623 1-1.076-.165 1.462 1.328.631-1.44.278L11 4.845l-.717-1.287-1.442.27 1-1.078z" transform="translate(638.869 99.234)" style="fill:#f7de29"/>
                    </g>
                </g>
            </g>
        </g>
        <text transform="translate(81 30)" style="font-size:22px;font-family:PingFangSC-Semibold,PingFang SC;font-weight:600;fill:#fff"><tspan x="0" y="0">中</tspan></text>
    </g>
</svg>
