<svg xmlns="http://www.w3.org/2000/svg" xmlns:xlink="http://www.w3.org/1999/xlink" width="36" height="36" viewBox="0 0 36 36"><defs><clipPath id="a"><rect width="36" height="36" transform="translate(30 1501)" fill="#fff" stroke="#707070" stroke-width="1"/></clipPath></defs><g transform="translate(-30 -1501)" clip-path="url(#a)"><path d="M17.848,34.562A16.714,16.714,0,1,1,34.562,17.848,16.714,16.714,0,0,1,17.848,34.562Zm0-31.2A14.486,14.486,0,1,0,32.333,17.848,14.486,14.486,0,0,0,17.848,3.362ZM10.619,24.939,14.461,14.6,24.8,10.756,20.96,21.1Zm7.228-8.206a1.114,1.114,0,1,0,1.114,1.114A1.114,1.114,0,0,0,17.848,16.733Z" transform="translate(30.152 1501.152)" fill="#fff"/></g></svg>