<svg xmlns="http://www.w3.org/2000/svg" width="50" height="50" viewBox="0 0 50 50">
    <g data-name="组 16450">
        <circle data-name="椭圆 6" cx="25" cy="25" r="25" style="fill:#fff"/>
    </g>
    <path data-name="路径 29784" d="M953.667 34.706a10.945 10.945 0 0 1-3.15.911 5.69 5.69 0 0 0 2.4-3.188 10.585 10.585 0 0 1-3.467 1.4A5.35 5.35 0 0 0 945.462 32 5.622 5.622 0 0 0 940 37.769a6.247 6.247 0 0 0 .127 1.315 15.224 15.224 0 0 1-11.268-6.033 6.052 6.052 0 0 0-.748 2.915 5.865 5.865 0 0 0 2.428 4.793 5.187 5.187 0 0 1-2.47-.71v.063a5.726 5.726 0 0 0 4.38 5.667 5.184 5.184 0 0 1-1.433.19 4.591 4.591 0 0 1-1.035-.1 5.566 5.566 0 0 0 5.108 4.018 10.626 10.626 0 0 1-6.778 2.46 9.69 9.69 0 0 1-1.311-.078 14.815 14.815 0 0 0 8.387 2.588c10.06 0 15.56-8.791 15.56-16.411 0-.255-.008-.5-.02-.745a11.259 11.259 0 0 0 2.74-2.995z" transform="translate(-915.333 -18.667)" style="fill:#070f08"/>
</svg>
