<svg xmlns="http://www.w3.org/2000/svg" width="48" height="48" viewBox="0 0 48 48">
    <defs>
        <clipPath id="jr5x3w4boa">
            <path data-name="矩形 3992" transform="translate(88 598)" style="stroke:#707070;fill:#fff" d="M0 0h48v48H0z"/>
        </clipPath>
    </defs>
    <g data-name="组 17807" transform="translate(-88 -598)" style="clip-path:url(#jr5x3w4boa)">
        <path data-name="路径 54332" d="M12.876 7.911a9.074 9.074 0 0 0 2.136 2.772 5.121 5.121 0 0 0 3.638 1.328 10.127 10.127 0 0 0 2.194-.289v6.525a3.14 3.14 0 0 0-1.039 0 3.191 3.191 0 0 0-2.6 2.772c0 .173-.173.346-.346.462a.524.524 0 0 1-.577 0 2.735 2.735 0 0 0-2.194-.289c-1.1.289-1.5.693-1.675 1.155h.346a4.991 4.991 0 0 1 3.465 1.328l.058.058a4.189 4.189 0 0 0 2.829 1.213h6.929a2.75 2.75 0 0 1 1.96.807 2.649 2.649 0 0 1 .751 1.559l2.656-1.559-.866-1.732A2.437 2.437 0 0 0 27.37 22.4a.661.661 0 0 1-.751-.346 2.429 2.429 0 0 0-3.118-1.79.547.547 0 0 1-.635-.289 3.708 3.708 0 0 0-.924-1.155v-5.712a7.774 7.774 0 0 0 2.194.289 5.322 5.322 0 0 0 3.638-1.328A7.866 7.866 0 0 0 29.852 9.3a6.9 6.9 0 0 1 1.905-2.367.741.741 0 0 0 .231-.577.559.559 0 0 0-.4-.462 12.013 12.013 0 0 0-3.118-.462 7.1 7.1 0 0 0-3.753.924 7.84 7.84 0 0 0-3 3.349 8.774 8.774 0 0 0-3.58-4.677 7.682 7.682 0 0 0-3.759-.928 9.342 9.342 0 0 0-3.118.462.49.49 0 0 0-.4.462.549.549 0 0 0 .231.577 6.582 6.582 0 0 1 1.785 2.31zM6.467 23.328H0V36.32h6.467a.641.641 0 0 0 .635-.635V23.963a.641.641 0 0 0-.635-.635z" transform="translate(93.992 604.619)" style="fill:#fff"/>
        <path data-name="路径 54333" d="M42.767 39.767a2 2 0 0 0-2.425-.346l-5.716 3.407a2.67 2.67 0 0 1-2.483 1.559H24a.635.635 0 0 1 0-1.27h8.142a1.544 1.544 0 0 0 1.444-1.039 1.6 1.6 0 0 0 .058-.52A1.578 1.578 0 0 0 32.084 40h-6.929a5.4 5.4 0 0 1-3.7-1.5l-.115-.115a3.824 3.824 0 0 0-2.6-.982H17.3a3.769 3.769 0 0 0-1.675.346 9.368 9.368 0 0 0-1.1.751c-.058.058-.173.115-.231.231v8.719a11.685 11.685 0 0 1 1.5.231L24.52 50.1a4.427 4.427 0 0 0 3.291-.577l14.666-8.719a.835.835 0 0 0 .4-.577c.123.002.063-.227-.11-.46z" transform="translate(87.949 590.547)" style="fill:#fff"/>
    </g>
</svg>
