<svg xmlns="http://www.w3.org/2000/svg" width="48" height="48" viewBox="0 0 48 48">
    <defs>
        <clipPath id="z7pauah8ga">
            <path data-name="矩形 6168" transform="translate(221 563)" style="stroke:#707070" d="M0 0h48v48H0z"/>
        </clipPath>
    </defs>
    <g data-name="组 11003" transform="translate(-221 -563)" style="clip-path:url(#z7pauah8ga)">
        <path data-name="路径 29725" d="M15.585 2.834a12.751 12.751 0 0 0-12.5 15.3 1.417 1.417 0 1 1-2.773.566A15.6 15.6 0 0 1 15.585 0a15.518 15.518 0 0 1 8.025 2.223A15.853 15.853 0 0 1 26.628.744 5.136 5.136 0 0 1 28.3.439a2.466 2.466 0 0 1 1.751.684 2.462 2.462 0 0 1 .684 1.752 5.126 5.126 0 0 1-.3 1.669 15.842 15.842 0 0 1-1.479 3.017A15.588 15.588 0 0 1 7.561 28.948a15.853 15.853 0 0 1-3.018 1.479 5.136 5.136 0 0 1-1.668.3 2.468 2.468 0 0 1-1.751-.684A2.462 2.462 0 0 1 .44 28.3a5.122 5.122 0 0 1 .3-1.669 18.1 18.1 0 0 1 1.966-3.8 71.752 71.752 0 0 1 9.181-10.939 79.4 79.4 0 0 1 9.053-7.88 12.7 12.7 0 0 0-5.36-1.178zm11.943.6a15.322 15.322 0 0 0-3.159 1.66A69.008 69.008 0 0 0 13.9 13.9a69.1 69.1 0 0 0-8.8 10.474 15.344 15.344 0 0 0-1.66 3.159 4.847 4.847 0 0 0-.089.3c.087-.023.188-.052.3-.09A15.3 15.3 0 0 0 6.8 26.081a1.417 1.417 0 0 1 1.572.022A12.753 12.753 0 0 0 26.1 8.373a1.417 1.417 0 0 1-.02-1.573 15.344 15.344 0 0 0 1.66-3.159c.037-.113.067-.214.089-.3q-.152.039-.3.089z" transform="translate(229.617 571.617)" style="stroke:#fff;fill:#fff"/>
        <path data-name="路径 29726" d="M431.429 514.721a2.041 2.041 0 1 0 2.041 2.041 2.041 2.041 0 0 0-2.041-2.041zm-4.762 2.041a4.762 4.762 0 1 1 4.762 4.762 4.762 4.762 0 0 1-4.762-4.762z" transform="translate(-184.062 75.203)" style="fill:#fff"/>
    </g>
</svg>
