<svg xmlns="http://www.w3.org/2000/svg" width="50" height="50" viewBox="0 0 50 50">
    <g data-name="组 23599">
        <path data-name="路径 152899" d="M49.252 31.048A24.994 24.994 0 1 1 31.045.748a25 25 0 0 1 18.207 30.3z" style="fill:#50af95"/>
        <path data-name="路径 152900" d="M41.386 45.236c-.177.013-1.09.068-3.128.068-1.621 0-2.771-.049-3.175-.068-6.263-.275-10.938-1.366-10.938-2.671s4.675-2.394 10.938-2.674v4.259c.41.029 1.582.1 3.2.1 1.945 0 2.919-.081 3.094-.1v-4.255c6.25.278 10.914 1.368 10.914 2.671s-4.663 2.392-10.914 2.669h.006zm0-5.782v-3.811h8.722v-5.811H26.362v5.811h8.72v3.809c-7.088.326-12.418 1.729-12.418 3.412s5.33 3.085 12.418 3.412v12.212h6.3V46.272c7.072-.326 12.393-1.728 12.393-3.409s-5.317-3.083-12.393-3.41z" transform="translate(-13.22 -17.402)" style="fill:#fff;fill-rule:evenodd"/>
    </g>
</svg>
