<svg xmlns="http://www.w3.org/2000/svg" width="50" height="50" viewBox="0 0 50 50">
    <g transform="translate(-210 -1531)">
        <circle data-name="椭圆 973" cx="25" cy="25" r="25" transform="translate(210 1531)" style="fill:#fff"/>
        <path data-name="路径 34009" d="M0 3.362V0h11.012l3.531 13.281s.209.2.252-.336L18.409.084 29.253 0v3.362l-1.261.084a1.129 1.129 0 0 0-.841 1.177l.084 14.29a1.141 1.141 0 0 0 .925.757l1.093.084v3.278l-10.339-.084V19.67h2.1V4.707l-5.3 18.325-3.951-.084L6.725 4.707l-.168-.084.084 15.131 2.186-.084-.084 3.278-8.659-.084V19.67h1.177a1.557 1.557 0 0 0 .841-.925V4.455a1.335 1.335 0 0 0-.925-1.009z" transform="translate(220.373 1544.484)" style="fill:#070f08;fill-rule:evenodd"/>
    </g>
</svg>
