<svg xmlns="http://www.w3.org/2000/svg" xmlns:xlink="http://www.w3.org/1999/xlink" width="48" height="48" viewBox="0 0 48 48"><defs><clipPath id="a"><rect width="48" height="48" transform="translate(693 734)" fill="#fff"/></clipPath><clipPath id="b"><rect width="36" height="32.5" fill="#fff"/></clipPath></defs><g transform="translate(-693 -734)" clip-path="url(#a)"><g transform="translate(95 522)"><g transform="translate(604 220)"><g transform="translate(0 0)" clip-path="url(#b)"><path d="M639.491,231.009c0-.021-.007-.035-.007-.056a1.11,1.11,0,0,0-.063-.216l-3.045-7.568a3.823,3.823,0,0,0-3.8-2.537H611.239a3.692,3.692,0,0,0-3.687,2.46l-3.268,7.721c-.014.049-.035.111-.049.181a7.208,7.208,0,0,0-.356,2.23,7.119,7.119,0,0,0,3.777,6.293,6.98,6.98,0,0,0,3.352.774h.007a7.123,7.123,0,0,0,5.443-2.537,7.024,7.024,0,0,0,10.8-.007,7.109,7.109,0,0,0,12.23-6.739Zm-7.554,1.261H611.2a1.3,1.3,0,1,1,0-2.592h20.746a1.3,1.3,0,1,1-.007,2.592Zm0,0" transform="translate(-603.886 -220.6)" fill="#fff"/></g></g><path d="M678.954,608.829a1.294,1.294,0,0,0-1.3-1.3,1.165,1.165,0,0,0-.376.077,8.006,8.006,0,0,1-3.115.536,7.859,7.859,0,0,1-5.1-1.791,8.384,8.384,0,0,1-5.373,2,8.221,8.221,0,0,1-5.422-1.791,8.276,8.276,0,0,1-5.443,1.9h-.007a7.7,7.7,0,0,1-3.073-.655c-.028-.014-.063-.021-.1-.035l-.153-.056a2.187,2.187,0,0,0-.286-.035,1.3,1.3,0,0,0-1.3,1.3l.007,6.948a3.327,3.327,0,0,0,3.324,3.317l24.4-.014a3.336,3.336,0,0,0,3.317-3.324Zm0,0" transform="translate(-41.691 -366.789)" fill="#fff"/></g></g></svg>