<svg xmlns="http://www.w3.org/2000/svg" xmlns:xlink="http://www.w3.org/1999/xlink" width="48" height="48" viewBox="0 0 48 48"><defs><clipPath id="a"><rect width="48" height="48" transform="translate(698 586)" fill="#fff" stroke="#707070" stroke-width="1"/></clipPath></defs><g transform="translate(-698 -586)" clip-path="url(#a)"><path d="M612.735,436.716a11.96,11.96,0,0,0-6.84-6.871.306.306,0,0,1-.09-.05c-1.3-1.008-2.027-.083-2.174.139a.366.366,0,0,0-.041.084c-.594,1.758-1.185,1.758-1.185,1.758a.415.415,0,0,1-.6,0,2.457,2.457,0,0,0-1.067-.78,7.371,7.371,0,0,1-.913-.525c-.227-.152-.447-.313-.664-.48a10.632,10.632,0,0,0-3.915-1.451c-.206-.039-.327-.058-.327-.058,0-.6.3-.6.3-.6l1.445-1.445a.358.358,0,0,0,.083-.121,1.191,1.191,0,0,0-.33-1.129l-1.5-1.5a7.384,7.384,0,0,1-.9-3.593.587.587,0,0,0-.6-.6,1.065,1.065,0,0,0-.861.535.343.343,0,0,0-.047.131c-.611,4.134-2.685,5.023-2.685,5.023a1.174,1.174,0,0,0-.336,1.181c-.031-.015,1.078,1.114,1.429,1.471a.365.365,0,0,1,.105.258v.675a.364.364,0,0,1-.282.358,9.365,9.365,0,0,0-3.816,2.254.337.337,0,0,1-.222.093c-2.328.088-17.987,2.243-17.987,2.243-2.123.425-2.59,2.5-2.682,3.679a.368.368,0,0,0,.581.33,10.891,10.891,0,0,1,1.161-.694.317.317,0,0,1,.09-.031c8.5-1.685,13.237,1.731,13.69,2.077a.353.353,0,0,0,.083.047c2.775,1.136,9.718,6.2,10.869,7.047a.355.355,0,0,1,.146.34c0,.016-.006.032-.009.047a.376.376,0,0,1-.4.3c-1.054-.122-6.458,1.229-6.458,1.229-1.35.225-1.517.788-1.516,1.054a.354.354,0,0,0,.071.217,4.39,4.39,0,0,0,2.334,1.123l.021,0c5.687,1.491,12.863-.6,12.863-.6,1.6-.4,2-.932,2.085-1.243a.355.355,0,0,0-.106-.364c-1.31-1.146-4.255-1.346-5.243-1.38a.853.853,0,0,1-.512-.2.188.188,0,0,1-.064-.136v-.024a.65.65,0,0,1,.19-.491l.059-.059s.413-.587.669-1.026a1.445,1.445,0,0,1,.7-.625,10.419,10.419,0,0,0,3.911-3.579.367.367,0,0,1,.3-.159h.187a.364.364,0,0,1,.311.171,8.985,8.985,0,0,0,1.073,1.292.384.384,0,0,0,.075.059c2.3,1.4,5.389.087,5.628-.018a.214.214,0,0,1,.034-.012C614.528,440.6,612.735,436.716,612.735,436.716Zm-2.1.3s-.3.9-.9.9h-1.2s-2.4-1.8-4.491-1.2a3.1,3.1,0,0,1-1.2.3h-.3s-.052-1.407.273-1.752c0,0,2.588-3.661,5.2-1.853a7.193,7.193,0,0,1,2.611,2.706Z" transform="translate(131.963 174.9)" fill="#fff"/></g></svg>