<svg xmlns="http://www.w3.org/2000/svg" width="40" height="40" viewBox="0 0 40 40">
    <defs>
        <clipPath id="371anxstfa">
            <path data-name="矩形 6990" style="stroke:#707070;fill:#fff" d="M0 0h40v40H0z"/>
        </clipPath>
    </defs>
    <g data-name="Layer 2" style="clip-path:url(#371anxstfa)">
        <path data-name="路径 141890" d="M22.75 23.276H5.251a1.184 1.184 0 1 0 0 2.365h17.5a1.184 1.184 0 1 0 0-2.365zm-17.5-2.365h.112l5.212-.449a2.562 2.562 0 0 0 1.512-.674L23.337 9.144a2.185 2.185 0 0 0-.087-3.2L19.825 2.7a2.607 2.607 0 0 0-3.325-.084L5.251 13.26a2.314 2.314 0 0 0-.712 1.431L4 19.622a1.146 1.146 0 0 0 .362.946 1.288 1.288 0 0 0 .889.343zM18.088 4.355 21.5 7.583 19 9.889 15.65 6.72z" transform="translate(6.001 6.177)" style="fill:#fff"/>
    </g>
</svg>
