<svg xmlns="http://www.w3.org/2000/svg" width="160" height="60" viewBox="0 0 160 60">
    <defs>
        <clipPath id="zs333ifg1a">
            <path data-name="矩形 7101" transform="translate(-4987 13320)" style="fill:#fff" d="M0 0h160v60H0z"/>
        </clipPath>
    </defs>
    <g data-name="蒙版组 375" transform="translate(4987 -13320)" style="clip-path:url(#zs333ifg1a)">
        <g data-name="组 22693">
            <g data-name="组 22685">
                <path data-name="路径 146669" d="M717.822 339.446q-4.554 2.526-9.12 5.015a4.6 4.6 0 0 0-.584-.631 5.925 5.925 0 0 0-1.606-1 8.87 8.87 0 0 0-1.631-.515 15.2 15.2 0 0 0-3.146-.316 31.334 31.334 0 0 0-5.967.611 49.648 49.648 0 0 0-5.709 1.463 51.725 51.725 0 0 0-5.5 2.114 37.156 37.156 0 0 0-5.24 2.863 21.57 21.57 0 0 0-2.455 1.887 11.576 11.576 0 0 0-2.169 2.538 6.823 6.823 0 0 0-.764 1.747 5.122 5.122 0 0 0-.127 2.127 4.83 4.83 0 0 0 .286 1.055 3.823 3.823 0 0 0 .673 1.122 3.979 3.979 0 0 0 1.015.819 4.945 4.945 0 0 0 1.057.426 7.254 7.254 0 0 0 1.88.225 11.719 11.719 0 0 0 1.659-.127 23.284 23.284 0 0 0 3.019-.659 49.987 49.987 0 0 0 5.561-1.979c3.591-1.489 7.03-3.207 10.421-5q2.536-1.357 5.031-2.772c.647-.369 1.285-.753 1.929-1.127-.042.109-.081.216-.125.323a17.573 17.573 0 0 1-2.8 4.454 28.337 28.337 0 0 1-3.919 3.778c-.154.124-.321.235-.477.355a8.231 8.231 0 0 0-1.388 0 20.037 20.037 0 0 0-2.9.485 42.109 42.109 0 0 0-5.529 1.749 33.707 33.707 0 0 0-5.274 2.531 10.421 10.421 0 0 0-1.265.9 4.814 4.814 0 0 0-.622.623 2.638 2.638 0 0 0-.3.454 1.7 1.7 0 0 0-.2.746 1.444 1.444 0 0 0 .324.94 1.679 1.679 0 0 0 .656.475 3.082 3.082 0 0 0 1.015.209 8.179 8.179 0 0 0 1.621-.1 20.954 20.954 0 0 0 2.918-.69 35.756 35.756 0 0 0 2.771-.975 45.634 45.634 0 0 0 5.281-2.508 41.626 41.626 0 0 0 3.887-2.441 5.728 5.728 0 0 1-.528 1.019 21.771 21.771 0 0 1-1.71 2.209 22.632 22.632 0 0 1-4.214 3.721 21.271 21.271 0 0 1-2.441 1.437 16.6 16.6 0 0 1-2.631 1.076 19 19 0 0 0 5.269-2.2 21.975 21.975 0 0 0 4.528-3.559 22.4 22.4 0 0 0 1.9-2.2 6.121 6.121 0 0 0 .761-1.336 2.442 2.442 0 0 0 .178-.859c0-.036-.006-.076-.007-.113a30.943 30.943 0 0 0 4.322-3.961 19.857 19.857 0 0 0 3.365-5.09c.105-.24.205-.473.3-.728s.188-.516.265-.789a6.968 6.968 0 0 0 .289-1.759v-.117q2.3-1.387 4.582-2.809c1.612-1.02 3.224-2.039 4.818-3.086 3.183-2.1 6.356-4.212 9.466-6.419l2.334-1.649 2.311-1.684q2.31-1.685 4.566-3.444zM690.016 363.6c-.848.37-1.708.71-2.575 1.007a19.068 19.068 0 0 1-2.605.713 6.63 6.63 0 0 1-1.138.121c.051-.053.1-.105.161-.158a9.818 9.818 0 0 1 1.027-.792 32.315 32.315 0 0 1 4.892-2.61 40.841 40.841 0 0 1 5.264-1.921 19.966 19.966 0 0 1 2.372-.518 43.173 43.173 0 0 1-7.398 4.158zm7.786-13.41c-1.683.851-3.374 1.68-5.076 2.472s-3.408 1.565-5.13 2.266a54.582 54.582 0 0 1-5.177 1.853 19.862 19.862 0 0 1-2.545.576 9.8 9.8 0 0 1-1.181.107 3.889 3.889 0 0 1-.947-.082c-.116-.03-1.265-.313-.09-2.123a8.406 8.406 0 0 1 1.521-1.786 18.2 18.2 0 0 1 2.045-1.609 33.887 33.887 0 0 1 4.73-2.654 49.06 49.06 0 0 1 5.121-2.042 46.388 46.388 0 0 1 5.312-1.458 28.359 28.359 0 0 1 5.353-.647 12.59 12.59 0 0 1 2.524.2 4.628 4.628 0 0 1 1.729.659 415.668 415.668 0 0 1-8.191 4.264z" transform="translate(-5642.517 13009.896)" style="fill:#fff"/>
            </g>
            <path data-name="路径 146670" d="M698.636 308.1a2.6 2.6 0 1 1-2.6-2.6 2.6 2.6 0 0 1 2.6 2.6z" transform="translate(-5646.49 13014.494)" style="fill:#fff"/>
            <g data-name="组 22686">
                <path data-name="路径 146671" d="M785.884 348.748c.294-.319-.325-.71-1.167-.976-.362-.113 2.538-.463 3.267-.477a.67.67 0 0 1 .525.251c.065.12-.042.4-.155.538-1.315 1.638-2.393 2.374-4.241 4.465-3.608 4.082 1.282 2.028 2.074 1.123.995-1.138 1.406-2.484 2.385-3.635a7.618 7.618 0 0 1 4.319-2.9 5.931 5.931 0 0 1 2.364.075 1.581 1.581 0 0 1 1.095 2.592 16.278 16.278 0 0 1-2.159 2.4c-.658.673-2.612 1.983-2.713 2.825-.065.54 3.372-1.222 3.572-1.251-.037.205-3.183 3.066-5.816 2.416-1.688-.415 2.135-3.811 3.159-4.98.7-.8 3.361-3.333 1.543-3.311-1.145.014-1.907 1.005-2.658 1.784-1.261 1.309-2.482 2.657-3.707 4s-3.976 3.048-6.016 2.643a.845.845 0 0 1-.617-1.29 14.212 14.212 0 0 1 1.363-2.22 44.852 44.852 0 0 1 3.583-4.072z" transform="translate(-5642.665 13006.498)" style="fill:#fff"/>
                <path data-name="路径 146672" d="M768.44 343.918c2.859-2.107 4.33.909 3.84 3.8-.655 3.87-4.861 8.21-8.7 9-1.66.34-3.2.414-4.326-1.35a3.579 3.579 0 0 1 .129-3.427c1.031-2.33 4.169-4.413 6.7-4.2a2.4 2.4 0 0 1 2.155 1.166 6.607 6.607 0 0 0-7.181 3.966c-1.128 2.305.166 3.28 1.325 3.221a6.013 6.013 0 0 0 4.323-2.132 14.725 14.725 0 0 0 3.5-7c.695-4.162-2.033-2.846-1.765-3.044z" transform="translate(-5645.616 13005.982)" style="fill:#fff"/>
                <path data-name="路径 146673" d="M780.182 343.918c2.86-2.107 4.331.909 3.841 3.8-.656 3.87-4.862 8.21-8.7 9-1.66.34-3.2.414-4.326-1.35a3.583 3.583 0 0 1 .129-3.427c1.031-2.33 4.17-4.413 6.7-4.2a2.4 2.4 0 0 1 2.156 1.166 6.608 6.608 0 0 0-7.182 3.966c-1.128 2.305.166 3.28 1.325 3.221a6.011 6.011 0 0 0 4.323-2.132 14.726 14.726 0 0 0 3.5-7c.695-4.162-2.034-2.846-1.766-3.044z" transform="translate(-5644.037 13005.982)" style="fill:#fff"/>
                <path data-name="路径 146674" d="M762.672 345.815a45.253 45.253 0 0 0-3.248 4.451c-.843 1.5-2.555 4.24-.993 4.956-1.131.866-1.454.9-2.3.289a14.284 14.284 0 0 1-1.735.9 3.124 3.124 0 0 1-3.938-3.532c.2-2.09 3.239-7.318 8.69-6.079a2.269 2.269 0 0 0 2.575-.555 2.005 2.005 0 0 1 .949-.43zm-2.718 1.994a8.805 8.805 0 0 0-1.537-.4c-2.463-.017-4.735 2.007-5.689 4.279-.374.891-.606 3.854 1.786 3.411a1.412 1.412 0 0 0 1.3-1.165 6.092 6.092 0 0 1 .464-1.255c.838-1.79 3.671-4.779 3.676-4.87z" transform="translate(-5646.748 13006.332)" style="fill:#fff"/>
                <path data-name="路径 146675" d="M745.669 353.7c.428-2.413 2.713-5.98 4.285-7.855 5.418-6.458 9-4.992 9.2-4.8-.224.107-3.826-.352-8.312 7.043-5.183 8.544.008 9.022-.471 9.124-.046-.066-5.52 1.105-4.702-3.512z" transform="translate(-5647.402 13005.653)" style="fill:#fff"/>
                <path data-name="路径 146676" d="M785.807 345c-.006-.684.475-1.112 1.257-1.116a1.122 1.122 0 0 1 1.173.988 1.43 1.43 0 0 1-1.2 1.284 1.124 1.124 0 0 1-1.23-1.156z" transform="translate(-5641.994 13006.072)" style="fill:#fff"/>
                <path data-name="路径 146677" d="M782.916 360.392c-13.232.946-40.8 7.519-38.669-2.846 1.077-5.237 6.3-12.763 13.1-18.545 1.83-1.554 7.468-5.366 7.466-5.475 0-.175-11.686 1.393-22.34 11.76-4.131 4.018-8.2 8.111-12.555 11.884-6.237 5.4-8.97.879-6.6-1.662 2.888-3.095 4.929-.891 4.152.618-.456.886 1.418-1.315.387-2.372-1.778-1.821-5.493.129-6.5 2.19-1.077 2.214-.305 4.452 2.054 5.153a6.052 6.052 0 0 0 5.2-.923c3.855-2.485 7.129-5.667 10.563-8.656a7.736 7.736 0 0 1 5.468-1.616c-12.384 23.534 22.7 14.767 31.438 13.763 5.949-.683 22.1-3.478 25.844-1.449 2.983 1.619-5.09 4.528-5.09 4.528 3.116-.142 7.383-1.137 9.223-3.124 2.054-2.213-1.457-4.78-23.141-3.228zM742.691 349c-.209.009-.417 0-.845 0 1.478-1.4 2.874-2.6 4.144-3.924 3.915-4.076 13.233-9.257 12.054-8.352-1.863 1.431-7.544 5.444-11.132 10.152-1.564 2.053-1.634 2.002-4.221 2.124z" transform="translate(-5650.722 13004.678)" style="fill:#fff"/>
            </g>
            <g data-name="组 22689">
                <path data-name="路径 147038" d="M699.745 328.1a27.625 27.625 0 0 0-1.044-2.968q-.62-1.454-1.387-2.855a32.92 32.92 0 0 0-1.672-2.742q-.457-.669-.951-1.327-.247-.328-.507-.655l-.266-.327-.295-.347-2.736-3.227-.908 3.876a43.311 43.311 0 0 1-3.124 8.956 35.033 35.033 0 0 1-13.365 14.8 36.851 36.851 0 0 1-10.3 4.4 28.057 28.057 0 0 0 5.834-1.065c.951-.266 1.888-.571 2.8-.918s1.817-.724 2.694-1.138a34.563 34.563 0 0 0 12.942-10.45 36.446 36.446 0 0 0 2.857-4.436 38.965 38.965 0 0 0 2.417-5.47c.3.477.588.956.858 1.442.476.846.9 1.709 1.282 2.582a24.97 24.97 0 0 1 1.01 2.644 16.287 16.287 0 0 1 .06 10.726 15.486 15.486 0 0 1-2.944 4.847c-7.622 8.7-16.49 9.963-17.076 10.03.3.024 3.386.768 12.68-3.6 10.248-4.327 11.888-14.48 11.96-16.577a20.132 20.132 0 0 0-.819-6.201z" transform="translate(-5640.387 13012.85)" style="fill:#fff"/>
            </g>
            <g data-name="组 22692">
                <path data-name="路径 147399" d="M662.9 346.207s4.637-4.1-.536-3.842-8.8 2.726-7.137 5.352c1.719 2.71 12.393-.979 18.591-4.8 9.34-5.753 15.926-6.781 25.887-5.889 16.295 1.462 33.422-8.728 33.422-8.728s-14.072 12.923-37.007 11.8c-15.723-.769-36.911 17.813-44.221 9.494-6.714-7.642 23.353-13.573 11.001-3.387z" transform="translate(-5637.909 13009.896)" style="fill:#fff"/>
            </g>
        </g>
    </g>
</svg>
