<svg xmlns="http://www.w3.org/2000/svg" width="48" height="48" viewBox="0 0 48 48">
    <defs>
        <clipPath id="4x439fx18a">
            <path data-name="矩形 6244" transform="translate(88 598)" style="stroke:#707070;fill:#fff" d="M0 0h48v48H0z"/>
        </clipPath>
    </defs>
    <g data-name="组 17808" transform="translate(-88 -598)" style="clip-path:url(#4x439fx18a)">
        <path data-name="矩形 6250" transform="rotate(-45 798.651 186.656)" style="fill:#fff" d="M0 0h7.247v1.282H0z"/>
        <path data-name="矩形 6251" transform="rotate(-45 800.604 167.533)" style="fill:#fff" d="M0 0h1.282v7.247H0z"/>
        <path data-name="矩形 6252" transform="rotate(-37 966.876 128.79)" style="fill:#fff" d="M0 0h3.204v1.282H0z"/>
        <path data-name="矩形 6253" transform="rotate(-53.12 657.407 197.902)" style="fill:#fff" d="M0 0h1.282v3.204H0z"/>
        <path data-name="矩形 6254" transform="translate(121.279 610.793)" style="fill:#fff" d="M0 0h4.639v1.16H0z"/>
        <path data-name="矩形 6255" transform="translate(98.082 610.793)" style="fill:#fff" d="M0 0h4.639v1.16H0z"/>
        <path data-name="路径 54335" d="m8.64 22.919-2.3 4.633L6 36.446l3.736 5.235 4.87-1.64a16.481 16.481 0 0 0-.73-2.98 5.671 5.671 0 0 0-1.467-2.236.6.6 0 0 1-.167-.25l-1.987-5.485a.769.769 0 0 0-.948-.519.641.641 0 0 0-.295.2.679.679 0 0 0-.115.641l1.922 5.28-1.2.436-1.922-5.28a1.961 1.961 0 0 1 .346-1.922 2.018 2.018 0 0 1 .865-.577 2.044 2.044 0 0 1 .73-.09l1.424-3.159a1.378 1.378 0 0 0-.641-1.8 1.339 1.339 0 0 0-1.781.619zm8.894 21.517a.308.308 0 0 0 0-.243l-1.1-3.044a.372.372 0 0 0-.359-.231.487.487 0 0 0-.135 0L8.967 43.3a.352.352 0 0 0-.173.128 1 1 0 0 0-.064.237.218.218 0 0 0 0 .064l1.115 3.037a.391.391 0 0 0 .493.218l6.952-2.345a.352.352 0 0 0 .244-.203zM38.98 27.552l-2.3-4.633a1.339 1.339 0 0 0-1.8-.6 1.378 1.378 0 0 0-.641 1.8l1.429 3.153a2.044 2.044 0 0 1 .73.09 2.018 2.018 0 0 1 .865.577 1.961 1.961 0 0 1 .346 1.922l-1.922 5.28-1.2-.436 1.922-5.28a.679.679 0 0 0-.115-.641.641.641 0 0 0-.3-.2.763.763 0 0 0-.942.519l-1.986 5.485a.6.6 0 0 1-.147.237 5.671 5.671 0 0 0-1.442 2.23 16.481 16.481 0 0 0-.73 2.98l4.87 1.64 3.71-5.229zm-3.5 19.21 1.1-3.037a.218.218 0 0 0 0-.064 1 1 0 0 0-.064-.237.384.384 0 0 0-.173-.128L29.4 40.95a.487.487 0 0 0-.135 0 .372.372 0 0 0-.359.231l-1.121 3.024a.308.308 0 0 0 0 .243.352.352 0 0 0 .218.186L34.988 47a.391.391 0 0 0 .487-.238z" transform="translate(89.34 593.999)" style="fill:#fff"/>
        <g data-name="组 22501">
            <path data-name="路径 107134" d="M274.7 260.4h2.2a1.323 1.323 0 0 0 1.322-1.322V256H274.7v4.4z" transform="translate(-162.262 354.217)" style="fill:#fff"/>
            <path data-name="路径 107135" d="M76.425 70.163h-.547a1.089 1.089 0 0 0 .106-.441c0-.74-.775-1.322-1.761-1.322a1.679 1.679 0 0 0-1.322.935 1.686 1.686 0 0 0-1.322-.935c-.991 0-1.761.582-1.761 1.322a1.094 1.094 0 0 0 .1.441h-.538a.881.881 0 0 0-.881.881v.881h3.964V70.6h.881v1.322h3.964v-.881a.887.887 0 0 0-.883-.878zm-4.842 0c-.538 0-.881-.261-.881-.441s.343-.441.881-.441c.265 0 .589.477.761.881h-.761zm2.642 0h-.765c.171-.406.5-.881.765-.881.538 0 .881.261.881.441s-.346.44-.881.44z" transform="translate(39.096 537.412)" style="fill:#fff"/>
            <path data-name="路径 107136" d="M87.2 259.081a1.323 1.323 0 0 0 1.322 1.322h2.2V256H87.2v3.081z" transform="translate(20.835 354.217)" style="fill:#fff"/>
        </g>
    </g>
</svg>
