<svg xmlns="http://www.w3.org/2000/svg" xmlns:xlink="http://www.w3.org/1999/xlink" width="36" height="36" viewBox="0 0 36 36"><defs><clipPath id="a"><rect width="36" height="36" transform="translate(30 1453)" fill="#fff" stroke="#707070" stroke-width="1"/></clipPath></defs><g transform="translate(-30 -1453)" clip-path="url(#a)"><path d="M9.235,15.483l7.207,7.208a2.595,2.595,0,0,0,3.662,0l7.207-7.206a1.443,1.443,0,0,0-2.041-2.041l-5.553,5.553V3.39a1.443,1.443,0,1,0-2.887,0V19l-5.553-5.554a1.443,1.443,0,1,0-2.041,2.041ZM28.962,5.765a1.443,1.443,0,1,0,0,2.887A3.142,3.142,0,0,1,32.1,11.789v16.8a3.142,3.142,0,0,1-3.138,3.138H7.583a3.142,3.142,0,0,1-3.138-3.138v-16.8A3.141,3.141,0,0,1,7.583,8.651a1.443,1.443,0,1,0,0-2.887,6.031,6.031,0,0,0-6.025,6.025v16.8a6.031,6.031,0,0,0,6.025,6.025H28.962a6.031,6.031,0,0,0,6.025-6.025v-16.8A6.031,6.031,0,0,0,28.962,5.765Z" transform="translate(29.727 1452.339)" fill="#fff"/></g></svg>