<svg xmlns="http://www.w3.org/2000/svg" width="48" height="48" viewBox="0 0 48 48">
    <defs>
        <clipPath id="g73ijnp88a">
            <path data-name="矩形 6318" transform="translate(274 757)" style="stroke:#707070;fill:#fff" d="M0 0h48v48H0z"/>
        </clipPath>
    </defs>
    <g data-name="组 17833" transform="translate(-274 -757)" style="clip-path:url(#g73ijnp88a)">
        <path data-name="路径 54366" d="m24.939 38.061-7.176.733c-3.635.051-5.856 3.418-6.313 4.18a.647.647 0 0 0-.087.327l.007 2.438a.65.65 0 0 1-.61.646l-1.86.085a.642.642 0 0 0-.392.152l-2.254 1.953a.639.639 0 0 0-.036.936l4.615 4.695a.642.642 0 0 0 .907.007l2.126-2.119a.645.645 0 0 0 .189-.486l-.087-1.85a.642.642 0 0 1 .675-.668l2.627.131L19.9 52.3a.875.875 0 0 0 .225.856L34.9 69.327a.833.833 0 0 0 1.19.131l1.451-1.437 1.451-1.437a.838.838 0 0 0-.123-1.19L22.856 50.44a.911.911 0 0 0-.856-.233l-3.048-2.663-.036-.007a.656.656 0 0 0-.029-.2c-1.458-4.716 4.165-7.249 6.335-8.033a.642.642 0 0 0-.283-1.241z" transform="translate(273.969 726.942)" style="fill:#fff"/>
        <path data-name="路径 54367" d="m111.56 47.231-.116-.443-.406.21a14.518 14.518 0 0 0-1.843 1.183 17.98 17.98 0 0 1-1.466.98 3.743 3.743 0 0 1-3.4.37 2.318 2.318 0 0 1-.784-3.171 4.909 4.909 0 0 1 1.5-1.263c.29-.181.58-.363.878-.544.588-.363 1.19-.733 1.763-1.132.479-.334.7-.6.733-.893.08-.639-.718-.9-1.19-1.059a6.89 6.89 0 0 0-8.707 4.288 8.362 8.362 0 0 0-.414 3.019 5.128 5.128 0 0 0 .131 1l-3.672 3.846 4.76 4.448 3.164-3.309a4.416 4.416 0 0 0 2.322.283 8.324 8.324 0 0 0 5.174-2.365 5.983 5.983 0 0 0 1.573-5.448zm-21.594 11.2-8.2 8.584a3.259 3.259 0 0 0 4.709 4.506l7.895-8.265zm-4.4 11.3a1.242 1.242 0 1 1-.044-1.756 1.246 1.246 0 0 1 .04 1.75z" transform="translate(204.566 724.106)" style="fill:#fff"/>
    </g>
</svg>
