<svg xmlns="http://www.w3.org/2000/svg" xmlns:xlink="http://www.w3.org/1999/xlink" width="48" height="48" viewBox="0 0 48 48"><defs><clipPath id="a"><rect width="48" height="48" transform="translate(693 734)" fill="#fff" stroke="#707070" stroke-width="1"/></clipPath></defs><g transform="translate(-693 -734)" clip-path="url(#a)"><g transform="translate(695.4 735)"><path d="M41.814,14.4l-3.853,7.72a5.333,5.333,0,0,1-4.773,2.947H13.72L10.88,14.4Z" transform="translate(-1.547 -1.067)" fill="#fff"/><path d="M41.352,17.6H17.485a1.333,1.333,0,0,0-1.333,1.68l1.733,6.32H34.058a5.333,5.333,0,0,0,4.773-2.947Z" transform="translate(-2.418 -1.6)" fill="#fff"/><path d="M38.934,32h-12a1.333,1.333,0,0,0,0,2.667h12a1.333,1.333,0,0,0,0-2.667Z" transform="translate(-4 -4)" fill="#fff"/><circle cx="2.667" cy="2.667" r="2.667" transform="translate(16.267 32.001)" fill="#fff"/><circle cx="2.667" cy="2.667" r="2.667" transform="translate(26.934 32.001)" fill="#fff"/><path d="M41.4,12.627A1.333,1.333,0,0,0,40.268,12h-4a1.333,1.333,0,0,0,0,2.667h1.84l-2.88,5.787a4,4,0,0,1-3.587,2.213H13.2l-2.133-8H30.934a1.333,1.333,0,0,0,0-2.667H10.267A6.667,6.667,0,0,0,4.173,8H2.933a1.333,1.333,0,0,0,0,2.667h1.24A4,4,0,0,1,8.04,13.641l3.213,12.08a6.667,6.667,0,0,0,6.44,4.947,1.333,1.333,0,0,0,0-2.667,4,4,0,0,1-3.747-2.667H31.641a6.667,6.667,0,0,0,5.96-3.68l3.854-7.72A1.333,1.333,0,0,0,41.4,12.627Z" transform="translate(0)" fill="#fff"/></g></g></svg>