<svg xmlns="http://www.w3.org/2000/svg" xmlns:xlink="http://www.w3.org/1999/xlink" width="36" height="36" viewBox="0 0 36 36"><defs><clipPath id="a"><rect width="36" height="36" transform="translate(30 1405)" fill="#fff" stroke="#707070" stroke-width="1"/></clipPath></defs><g transform="translate(-30 -1405)" clip-path="url(#a)"><path d="M31.5,0H4.5A4.513,4.513,0,0,0,0,4.5v18A4.513,4.513,0,0,0,4.5,27h27A4.513,4.513,0,0,0,36,22.5V4.5A4.513,4.513,0,0,0,31.5,0ZM4.5,2.25h27c.45,0,.675,0,.9.225a.22.22,0,0,1-.225.225l-12.6,12.6a2.175,2.175,0,0,1-3.15,0L3.6,2.7a.22.22,0,0,0-.225-.225A2.028,2.028,0,0,1,4.5,2.25ZM2.25,22.5V4.5l9.225,9.225-9.225,9V22.5Zm31.5,0v.45l-9.225-9.225L22.95,15.3l9.45,9.45H4.5a1.7,1.7,0,0,1-.9-.225L12.825,15.3l1.8,1.8a4.35,4.35,0,0,0,6.3,0L24.3,13.725,33.75,4.5Z" transform="translate(30 1409.5)" fill="#fff"/></g></svg>